<?xml version="1.0" standalone="no"?>
<!DOCTYPE svg PUBLIC "-//W3C//DTD SVG 20010904//EN"
 "http://www.w3.org/TR/2001/REC-SVG-20010904/DTD/svg10.dtd">
<svg version="1.0" xmlns="http://www.w3.org/2000/svg"
 width="900.000000pt" height="600.000000pt" viewBox="0 0 900.000000 600.000000"
 preserveAspectRatio="xMidYMid meet">

<g transform="translate(0.000000,600.000000) scale(0.100000,-0.100000)"
fill="#000000" stroke="none">
<path d="M0 3864 l0 -2137 26 27 c34 33 58 35 49 4 -9 -30 -44 -60 -62 -54
-11 5 -13 -53 -13 -339 1 -302 5 -368 23 -337 2 4 2 1 1 -5 -2 -7 0 -13 5 -13
5 0 11 9 14 20 4 14 0 20 -11 21 -10 1 -6 4 8 8 14 4 24 13 23 19 -2 7 1 12 5
12 4 0 7 15 7 33 0 17 4 38 10 46 7 10 6 15 -3 18 -6 3 -10 9 -6 14 3 5 -2 9
-10 9 -20 0 -21 19 -1 26 8 4 13 9 11 13 -3 4 4 8 15 8 11 1 17 -2 14 -7 -6
-10 33 -25 42 -16 4 3 1 6 -5 6 -7 0 -12 5 -12 11 0 6 9 8 22 4 23 -7 23 -7 3
10 -11 9 -15 14 -10 12 6 -3 16 2 24 10 12 13 11 14 -10 8 l-24 -7 23 17 c20
15 21 18 7 32 -12 11 -13 19 -5 28 8 10 8 15 -1 21 -8 4 -9 3 -5 -4 4 -7 2
-12 -3 -12 -11 0 -15 12 -12 42 1 10 -3 18 -8 18 -15 0 -14 30 2 30 7 0 5 5
-5 11 -14 8 -16 19 -11 72 5 52 11 67 39 95 17 17 46 35 63 38 20 4 31 12 31
24 0 22 9 30 26 23 12 -4 11 -8 -3 -19 -11 -8 -13 -13 -6 -14 18 0 46 47 39
65 -3 8 -1 15 4 15 6 0 10 -8 11 -17 0 -12 2 -13 6 -5 3 7 -1 21 -9 30 -18 20
-35 50 -23 40 4 -4 15 -2 24 4 13 10 14 10 3 -2 -16 -19 -15 -30 3 -30 8 0 15
-5 15 -11 0 -5 5 -7 11 -4 6 5 4 12 -8 21 -17 13 -17 14 5 20 12 4 22 11 21
18 -3 26 2 37 14 30 9 -5 9 -4 0 6 -10 11 -15 11 -28 0 -14 -12 -15 -10 -10
13 5 17 3 27 -4 27 -6 0 -11 7 -11 16 0 12 5 11 20 -7 26 -32 26 -15 -1 22
-11 16 -17 29 -13 29 4 0 -1 9 -11 20 -10 11 -25 20 -33 20 -9 0 -13 3 -9 6 3
3 -7 19 -21 35 -15 17 -34 42 -42 57 -13 24 -21 28 -52 26 -29 -2 -40 2 -52
22 -9 13 -12 24 -6 24 7 0 7 6 1 18 -15 29 -36 87 -33 94 1 4 -4 5 -11 2 -18
-7 -52 21 -43 35 6 9 14 8 34 -5 38 -25 67 -53 67 -66 0 -6 6 -13 13 -16 8 -2
10 2 5 14 -4 11 -3 15 5 10 6 -3 13 -2 17 4 3 5 1 10 -5 10 -6 0 -9 4 -5 9 3
5 2 12 -3 15 -9 6 -8 47 2 64 4 7 3 12 -3 12 -6 0 -5 16 3 43 8 24 18 41 26
39 7 -2 10 3 7 12 -4 9 -2 18 3 21 6 4 10 2 10 -3 0 -6 7 -13 16 -16 14 -5 15
-4 4 9 -11 13 -10 14 4 9 9 -4 16 -1 16 6 0 9 3 10 13 1 8 -6 17 -7 21 -3 4 4
22 7 38 7 17 0 33 6 35 13 3 7 -1 10 -11 6 -12 -5 -15 -2 -10 10 3 9 15 16 26
16 15 0 19 5 15 20 -3 11 -1 18 3 15 5 -3 11 -1 15 5 3 5 -1 10 -9 10 -9 0
-16 5 -16 11 0 5 5 7 10 4 6 -3 10 1 10 9 0 9 -4 16 -10 16 -5 0 -10 4 -10 10
0 5 7 7 15 4 8 -4 15 -1 15 5 0 6 -4 11 -9 11 -5 0 -7 9 -4 20 3 11 9 17 14
15 12 -8 51 34 43 47 -4 6 -3 8 3 5 6 -4 14 0 17 9 4 9 13 14 21 10 13 -5 14
-2 4 15 -7 13 -7 19 -1 15 6 -3 13 3 17 14 3 11 10 20 15 20 4 0 10 9 13 21 4
14 10 18 18 13 9 -5 10 -2 6 10 -6 14 -3 17 8 12 9 -3 13 -2 10 4 -8 13 50 72
60 62 5 -4 6 0 2 9 -4 13 -1 16 15 11 14 -3 19 -1 14 6 -5 8 -2 10 9 6 10 -4
15 -2 13 7 -2 8 3 13 11 11 8 -2 11 3 8 12 -4 9 -1 18 5 22 6 4 8 3 4 -4 -3
-6 -2 -13 4 -17 6 -4 8 -11 5 -16 -4 -5 -1 -9 6 -9 7 0 9 10 7 25 -3 13 -1 22
3 19 5 -3 9 -13 10 -22 0 -12 3 -10 10 6 5 13 13 21 18 17 5 -3 12 -1 15 4 4
5 2 12 -3 15 -13 8 -2 45 12 42 7 -2 9 -1 5 1 -4 2 -5 10 -2 18 3 7 1 16 -5
20 -6 3 -11 14 -11 24 0 10 -9 26 -21 37 -16 14 -22 16 -28 5 -5 -8 -10 -9
-12 -3 -2 6 -13 12 -24 14 -24 4 -57 37 -49 49 3 5 14 9 25 9 10 0 19 6 19 13
0 6 12 23 25 36 14 13 25 27 25 31 0 15 35 21 45 7 5 -7 22 -17 36 -20 15 -4
29 -13 32 -21 7 -18 -3 -57 -13 -51 -4 3 -10 -5 -13 -16 -4 -15 0 -23 14 -26
10 -3 16 -9 13 -14 -5 -9 16 -13 54 -10 26 2 57 -24 47 -39 -4 -6 -1 -9 7 -8
9 2 13 -7 12 -29 -2 -25 1 -29 11 -20 7 7 10 19 8 27 -3 10 -1 9 7 -2 6 -10
17 -18 24 -18 8 0 17 -8 21 -17 6 -17 7 -17 21 1 8 12 14 15 14 7 0 -10 3 -11
13 -2 8 6 16 8 20 5 3 -3 13 6 22 20 10 14 20 24 25 21 8 -5 50 49 50 65 0 5
3 9 8 8 16 -3 42 15 42 31 0 14 2 14 10 1 6 -9 10 -10 10 -3 0 18 41 53 62 53
10 0 18 7 18 15 0 8 3 14 8 13 10 -2 66 25 73 36 4 5 11 6 17 2 6 -3 13 7 17
23 7 34 50 55 78 39 9 -5 17 -6 17 -2 0 9 66 -59 100 -103 17 -22 27 -28 32
-20 6 9 8 8 8 -2 0 -11 3 -11 15 -1 13 11 14 10 8 -6 -5 -15 -4 -17 8 -8 8 6
27 10 42 9 17 -1 31 4 34 11 3 8 10 14 15 14 6 0 17 8 24 18 8 10 13 12 14 5
0 -20 20 -15 20 5 1 16 1 16 14 0 14 -19 32 -25 21 -8 -3 6 -2 10 4 10 5 0 12
-8 14 -17 4 -15 5 -15 6 2 1 17 3 18 11 5 8 -12 10 -11 10 7 0 12 8 27 19 32
10 6 21 24 25 41 3 18 10 29 16 25 5 -3 10 -1 10 5 0 6 4 9 9 6 5 -4 12 0 15
6 5 10 7 10 12 1 11 -24 62 -8 91 27 8 10 12 11 13 3 0 -7 -9 -21 -21 -31 -31
-30 1 -36 42 -7 l34 23 20 -22 c11 -11 29 -22 40 -23 11 -1 33 -4 49 -7 17 -3
49 -1 72 3 36 7 42 6 37 -8 -4 -13 -3 -14 5 -2 6 8 16 16 24 17 77 13 92 20
84 40 -3 8 -1 14 5 14 6 0 8 4 5 9 -3 4 7 33 23 64 16 31 27 58 24 61 -2 2 5
7 16 11 16 5 20 12 15 29 -7 28 36 67 66 61 11 -2 20 1 20 7 0 5 7 8 15 4 8
-3 14 -2 14 2 -3 20 2 33 11 27 6 -4 7 2 1 17 -6 16 -5 29 5 42 12 18 13 17
11 -2 0 -11 -5 -18 -9 -16 -4 3 -5 -2 -2 -11 9 -23 19 -7 23 38 1 4 8 7 16 7
8 0 15 7 15 15 0 8 7 15 15 15 8 0 12 6 9 14 -3 8 0 17 7 22 8 5 10 3 4 -6 -5
-8 -3 -11 5 -8 7 2 15 13 16 24 2 10 17 31 34 46 16 16 31 31 33 35 1 5 5 7
10 6 4 -2 7 4 7 13 0 8 -5 12 -10 9 -5 -3 -10 -2 -10 3 0 12 27 23 33 14 5
-10 0 10 -9 32 -5 14 -4 17 6 11 8 -5 11 -3 9 4 -3 7 -8 11 -13 9 -10 -4 -35
43 -29 57 2 7 -4 18 -14 26 -16 13 -17 12 -4 -4 8 -9 12 -19 10 -20 -2 -1 -12
-8 -21 -15 -14 -11 -22 -10 -48 3 -18 9 -34 14 -37 11 -3 -3 -14 -1 -24 4 -12
7 -20 6 -25 -2 -5 -7 -3 -8 6 -3 8 5 11 3 8 -6 -3 -8 -10 -13 -16 -12 -7 2 -9
-5 -5 -15 3 -9 3 -14 -1 -10 -4 3 -16 -2 -26 -12 -27 -27 -81 -14 -91 22 -4
17 -2 34 8 47 8 12 11 21 6 21 -4 0 0 5 10 11 9 5 17 17 17 25 0 8 5 12 10 9
6 -4 7 -12 4 -18 -4 -7 -3 -8 1 -4 12 10 16 39 5 32 -17 -10 -28 30 -22 80 4
35 7 44 12 30 6 -17 8 -14 12 12 2 18 1 30 -3 27 -4 -2 -10 0 -14 6 -3 5 -1
10 4 10 6 0 11 7 11 16 0 9 -5 12 -12 8 -7 -4 -8 -3 -4 5 4 6 2 20 -6 29 -11
15 -11 16 3 4 14 -10 18 -10 23 4 4 9 4 19 1 22 -3 3 -5 0 -5 -7 0 -7 -5 -9
-10 -6 -6 4 -8 15 -5 25 5 15 2 18 -13 15 -10 -2 -25 0 -32 5 -7 5 -23 4 -36
0 -12 -5 -24 -6 -28 -3 -3 3 -28 7 -56 9 -28 2 -55 6 -61 9 -5 4 -9 -1 -9 -11
0 -13 -3 -14 -14 -5 -8 7 -16 8 -18 4 -1 -4 -19 -21 -38 -38 -19 -16 -35 -37
-35 -45 0 -8 -5 -21 -12 -28 -11 -11 -19 -10 -47 8 -19 11 -36 25 -38 31 -4
12 -29 13 -90 4 -80 -13 -143 31 -115 81 10 17 9 18 -7 5 -14 -12 -17 -12 -14
0 2 7 9 20 17 29 13 13 12 15 -8 18 -16 3 -20 8 -16 21 4 15 1 18 -19 16 -18
-2 -23 1 -19 12 5 12 7 12 14 1 7 -10 9 -11 9 0 0 7 4 11 9 8 5 -3 12 1 15 10
4 9 2 13 -5 8 -7 -4 -10 -1 -7 7 3 8 10 13 16 12 5 -1 8 8 5 20 -4 18 -3 19 6
7 6 -8 11 -11 11 -6 0 5 -7 18 -16 28 -14 14 -14 20 -4 33 7 9 8 15 2 15 -15
0 -20 -20 -16 -60 3 -23 1 -28 -4 -15 -4 11 -13 20 -19 20 -13 0 -18 -10 -10
-23 2 -4 2 -1 0 6 -1 7 2 10 7 7 6 -3 10 -20 10 -36 0 -17 -4 -28 -9 -24 -5 3
-12 1 -16 -5 -4 -7 -14 -6 -28 2 -12 7 -28 11 -34 10 -7 -2 -13 2 -13 8 0 6
-4 9 -9 6 -9 -6 -26 22 -23 37 1 4 -2 7 -7 7 -13 0 -23 28 -28 79 -4 37 -3 43
10 38 10 -4 22 4 33 21 17 26 17 27 -1 12 -17 -13 -18 -13 -13 1 3 9 -4 25
-18 38 -21 20 -24 21 -24 5 0 -9 -3 -14 -6 -11 -4 3 -15 2 -25 -4 -11 -5 -19
-6 -19 -1 0 12 -70 9 -70 -3 0 -5 -5 -2 -10 7 -6 10 -19 15 -30 13 -11 -2 -20
2 -20 8 0 8 -3 8 -9 -1 -4 -7 -13 -12 -19 -10 -6 2 -17 -6 -25 -17 -12 -16
-18 -17 -30 -7 -9 8 -18 9 -21 3 -4 -6 -19 -5 -41 2 -32 9 -40 21 -36 53 1 7
-10 10 -26 8 -16 -2 -20 -1 -10 2 9 3 17 13 17 22 0 11 -3 13 -8 6 -8 -13 -44
-15 -36 -2 3 5 10 6 15 3 5 -3 6 1 3 9 -3 9 -10 16 -16 16 -5 0 -6 -5 -2 -12
5 -8 2 -9 -10 -5 -10 4 -22 7 -27 7 -6 0 -8 4 -5 9 4 5 -10 5 -31 0 -44 -9
-52 -7 -20 9 121 58 379 93 512 69 103 -18 296 -90 450 -166 216 -107 209 -99
137 -138 -51 -28 -190 -160 -287 -273 l-20 -23 20 6 c11 3 57 19 102 35 128
46 243 66 380 67 67 0 124 -2 127 -5 2 -3 8 -37 11 -75 4 -39 9 -74 12 -78 3
-5 25 21 49 56 24 36 48 68 54 72 5 3 44 -3 85 -15 65 -18 82 -28 129 -75 57
-58 185 -145 277 -190 l57 -28 52 -136 53 -135 -17 -171 c-9 -93 -16 -185 -16
-203 0 -29 -5 -35 -37 -48 -21 -9 -86 -38 -145 -66 l-107 -51 -102 42 c-63 27
-110 40 -124 37 -12 -3 -73 -62 -134 -131 l-113 -125 -137 0 -138 0 -38 -81
c-23 -50 -46 -84 -59 -89 -11 -5 -95 -18 -186 -30 -445 -56 -630 -99 -796
-185 -87 -45 -280 -168 -309 -197 -18 -18 38 13 111 63 101 68 144 90 156 83
6 -4 8 -3 5 3 -4 6 -1 13 6 16 8 3 14 -3 14 -14 1 -10 -3 -19 -8 -19 -6 0 -7
-4 -4 -10 3 -5 1 -10 -4 -10 -6 0 -11 4 -11 10 0 5 -7 7 -15 3 -21 -8 -12 -29
10 -25 17 3 17 3 1 -14 -15 -14 -19 -15 -27 -3 -5 8 -9 19 -9 24 -1 12 -23
-35 -24 -53 -1 -7 -7 -16 -14 -21 -11 -7 -11 -9 2 -14 9 -4 16 -11 16 -17 0
-18 -38 7 -45 30 -6 18 -8 18 -21 5 -9 -8 -20 -15 -26 -15 -6 0 -9 -3 -6 -6 4
-3 15 -2 25 3 13 7 24 3 41 -15 l24 -25 -25 7 c-14 3 -29 1 -32 -4 -4 -6 -10
-8 -14 -6 -3 3 -7 -5 -7 -16 0 -20 0 -20 14 1 15 22 39 30 25 9 -23 -37 -10
-43 22 -11 19 20 35 40 35 45 0 4 11 8 25 8 18 0 25 -5 25 -20 0 -11 -4 -20
-10 -20 -17 0 -11 -28 8 -39 15 -9 15 -10 -6 -11 -12 0 -31 -9 -42 -20 -19
-19 -19 -19 -14 13 5 31 4 30 -10 -6 -16 -43 -32 -64 -22 -29 3 12 8 32 11 45
5 20 4 20 -4 2 -5 -11 -12 -28 -15 -39 -5 -15 -9 -16 -21 -6 -13 11 -14 10
-10 -3 4 -8 2 -18 -4 -22 -6 -3 -11 -1 -11 6 0 7 -3 9 -7 6 -3 -4 1 -15 9 -24
9 -10 19 -28 22 -40 7 -23 36 -33 36 -12 0 5 -6 7 -12 3 -10 -6 -10 -4 0 8 10
13 10 18 1 24 -8 5 -9 3 -4 -6 5 -9 4 -11 -3 -6 -18 11 -14 22 12 40 22 14 27
14 40 1 11 -11 16 -12 19 -2 3 7 6 4 6 -6 1 -14 -5 -17 -26 -14 -27 4 -28 3
-26 -39 2 -42 -8 -56 -22 -34 -4 6 -10 8 -15 5 -7 -4 -23 31 -21 48 2 11 -4 9
-25 -10 -13 -13 -19 -33 -20 -65 -1 -27 2 -48 6 -48 5 0 17 -3 27 -6 13 -4 15
-3 4 4 -9 7 -10 12 -2 16 17 11 13 29 -5 22 -9 -4 -14 -1 -12 6 2 6 12 12 22
14 14 2 17 -3 14 -21 -5 -24 5 -49 19 -51 4 0 22 -6 38 -13 17 -7 50 -20 75
-28 71 -24 208 -94 239 -122 15 -14 34 -27 41 -29 27 -6 87 -67 94 -95 3 -17
10 -26 17 -21 8 4 7 9 -2 15 -7 4 -11 10 -8 14 3 3 33 -19 65 -49 32 -31 56
-55 52 -56 -4 0 -14 8 -24 17 -18 18 -65 26 -74 12 -7 -9 -100 10 -118 24 -7
5 -16 6 -20 2 -4 -4 -1 -10 6 -12 25 -9 12 -25 -17 -20 -27 6 -39 -3 -45 -33
-1 -3 -5 -11 -9 -17 -5 -8 -3 -13 5 -13 8 -1 5 -7 -7 -17 -19 -15 -19 -15 12
-10 31 6 32 6 15 -11 -11 -12 -20 -14 -24 -8 -5 7 -8 4 -8 -6 0 -20 16 -32 25
-18 9 15 35 12 35 -4 0 -7 -8 -20 -17 -27 -16 -13 -17 -12 -4 4 18 23 8 33
-13 12 -14 -15 -17 -15 -22 -1 -7 18 -123 68 -214 91 -68 18 -77 20 -173 30
l-58 7 43 27 c81 51 166 88 232 102 105 20 87 31 -84 48 -143 14 -313 5 -420
-22 -89 -23 -102 -37 -15 -17 108 24 195 31 195 16 0 -7 3 -8 8 -1 12 17 59
14 59 -4 0 -21 -34 -64 -41 -52 -3 5 1 14 9 21 19 16 19 27 1 27 -8 0 -12 -6
-9 -14 7 -17 -13 -17 -21 0 -3 6 -3 1 0 -13 4 -14 3 -22 -1 -18 -10 10 -45
-10 -44 -25 0 -9 2 -9 6 1 2 6 9 10 14 6 5 -3 9 1 9 8 1 7 7 2 14 -12 24 -43
3 -91 -37 -84 -12 2 -16 2 -9 -2 6 -3 10 -10 7 -15 -4 -5 2 -6 11 -2 14 5 16
3 11 -11 -4 -10 -7 -20 -7 -22 0 -3 -4 -3 -9 1 -5 3 -13 0 -17 -6 -4 -8 -3 -9
4 -5 13 8 15 -7 5 -43 l-6 -23 -12 28 c-9 24 -12 26 -18 11 -4 -11 -3 -16 3
-12 6 4 11 -8 11 -27 2 -41 2 -34 -7 -88 -4 -25 -7 -54 -7 -66 -1 -16 -6 -20
-22 -17 -11 2 -15 1 -9 -2 6 -3 9 -17 6 -30 -2 -14 2 -33 9 -42 12 -14 12 -15
0 -9 -10 7 -11 3 -6 -15 5 -13 9 -42 10 -64 5 -74 16 -170 22 -175 3 -3 3 32
0 78 -4 57 -2 80 5 76 7 -5 8 -2 3 6 -25 40 14 314 60 424 13 31 19 36 43 32
15 -2 53 -7 84 -11 32 -3 60 -11 64 -16 3 -5 14 -7 25 -4 22 7 89 -22 89 -39
0 -7 -5 -17 -12 -24 -9 -9 -8 -12 8 -12 10 0 25 -9 32 -20 14 -22 8 -40 -11
-40 -9 0 -9 2 0 8 10 7 10 12 -1 27 -13 18 -14 17 -14 -11 0 -16 5 -36 11 -44
7 -8 2 -6 -11 4 -25 22 -30 11 -6 -15 15 -16 14 -17 -4 -12 -11 2 -23 -1 -27
-9 -5 -7 -5 -10 0 -6 4 4 17 2 28 -4 19 -10 19 -12 4 -23 -16 -12 -16 -13 -1
-19 9 -4 19 -4 22 -1 3 3 -1 5 -9 5 -11 0 -11 2 1 10 8 5 22 9 30 9 10 0 8 -3
-5 -9 -13 -6 -15 -9 -5 -9 13 -1 13 -2 0 -11 -8 -5 -22 -7 -31 -4 -22 6 -46
-55 -27 -68 10 -6 9 -14 -4 -39 -24 -41 -23 -49 10 -50 20 -1 22 -2 7 -6 -30
-7 -45 -26 -18 -21 24 3 26 -2 16 -29 -6 -15 -7 -15 -15 3 -6 15 -7 12 -5 -11
2 -21 -4 -38 -20 -55 -24 -26 -23 -41 2 -20 8 7 15 9 15 6 0 -8 335 162 372
188 12 9 26 16 31 16 7 0 196 -282 255 -381 l22 -36 -68 -6 c-37 -4 -94 -7
-127 -8 -33 -1 -71 -4 -85 -8 -24 -7 -24 -7 8 -20 18 -7 32 -16 32 -20 0 -3
-62 -23 -138 -44 -137 -38 -263 -91 -336 -140 -103 -71 -216 -250 -321 -512
-31 -77 -60 -158 -65 -180 -5 -22 -14 -58 -21 -80 -8 -26 -9 -64 -5 -108 l8
-67 3554 0 c2356 0 3554 3 3554 10 0 12 -172 403 -225 513 -34 68 -55 95 -55
68 0 -5 -8 -12 -17 -15 -10 -4 -14 -4 -11 0 4 3 -3 15 -15 25 l-22 19 25 21
25 21 -46 42 c-30 27 -77 54 -130 75 -46 18 -86 35 -88 36 -4 4 58 115 64 115
3 0 28 -9 56 -20 28 -12 53 -19 55 -17 2 2 -21 16 -51 33 -30 16 -53 34 -51
39 2 6 20 51 39 100 20 50 72 189 117 310 84 227 166 406 187 413 10 3 13 -30
15 -140 3 -329 -4 -447 -38 -612 -8 -38 -12 -71 -10 -73 2 -3 14 41 27 96 12
56 26 101 31 101 4 0 8 -4 8 -10 0 -5 43 -121 95 -257 58 -152 95 -261 95
-284 0 -20 -9 -81 -20 -134 -22 -109 -24 -140 -5 -80 15 49 11 60 81 -190 31
-110 58 -202 60 -204 18 -20 5 39 -51 238 l-66 232 12 75 c15 87 23 59 -112
410 l-89 231 -3 318 -2 318 38 36 c21 20 66 55 100 79 34 24 61 48 60 52 -2 5
3 7 10 5 6 -3 23 4 37 15 l25 20 -85 1 c-148 2 -147 -3 -23 128 59 62 110 118
111 122 2 5 -27 10 -65 10 -37 1 -72 2 -78 4 -5 1 -36 3 -67 3 -32 1 -62 8
-68 15 -5 6 -35 46 -67 87 -74 99 -160 192 -242 262 -112 97 -258 159 -626
264 -181 51 -215 67 -215 100 0 6 -8 35 -17 64 -18 55 -43 74 -86 65 -12 -2
-45 -6 -73 -9 -49 -6 -53 -4 -81 29 -17 19 -33 33 -36 30 -4 -3 -5 -2 -2 2 9
12 -16 32 -33 26 -12 -3 -13 -2 -5 4 16 12 -43 87 -63 79 -7 -3 -16 0 -20 6
-5 7 -2 8 6 3 8 -5 11 -3 8 5 -2 8 -20 22 -40 32 l-35 19 -154 -50 -153 -50
-65 29 c-148 64 -292 118 -289 108 2 -6 68 -37 146 -68 147 -60 329 -148 453
-221 70 -41 71 -41 64 -76 -3 -19 -10 -46 -15 -59 l-10 -24 -57 29 c-133 67
-347 156 -488 202 -82 28 -162 55 -177 61 -28 10 -28 12 -28 99 l0 89 26 -10
c31 -12 44 -13 44 -2 0 4 -16 14 -35 21 -19 7 -35 18 -35 24 0 7 -7 129 -16
272 l-15 260 50 107 c28 59 51 111 51 116 0 5 19 18 42 28 24 10 79 41 123 68
l80 49 98 -9 c95 -9 136 -1 57 10 -134 20 -123 16 -104 38 16 16 27 18 84 14
36 -3 56 -3 45 0 -11 3 -27 8 -35 11 -16 7 -26 10 -37 12 -5 1 -1 6 7 11 8 5
24 7 35 4 18 -4 18 -4 3 6 -22 13 -24 34 -3 27 8 -4 17 -1 21 5 4 7 3 8 -5 4
-18 -12 -5 43 16 67 10 11 41 30 68 42 28 13 82 37 120 55 39 18 94 43 124 56
30 13 51 27 48 30 -3 3 -12 2 -19 -2 -18 -12 -302 -131 -306 -129 -1 1 0 9 3
17 3 8 52 32 108 54 56 21 113 44 127 51 14 7 30 13 36 13 6 0 41 13 77 30 36
16 96 38 134 49 192 55 276 81 281 86 3 3 0 11 -8 18 -10 9 -11 9 -6 0 4 -7 4
-13 -1 -14 -25 -2 -144 -24 -178 -32 -11 -3 -58 -20 -105 -37 -47 -17 -99 -35
-115 -39 -17 -4 -41 -13 -53 -20 -13 -7 -31 -14 -40 -16 -15 -3 -108 -39 -194
-73 -42 -17 -37 14 5 32 65 28 103 43 159 61 32 11 53 22 47 26 -6 3 2 7 18 7
47 1 63 5 63 14 0 4 9 8 21 8 11 0 18 4 15 8 -2 4 11 7 30 7 34 -2 45 8 22 19
-7 4 -2 4 11 2 16 -3 29 1 38 12 12 16 13 16 7 -1 -5 -13 -2 -16 9 -11 9 3 18
13 20 22 4 15 5 15 6 0 0 -10 6 -18 12 -18 6 0 8 9 3 23 -3 12 -3 19 1 15 4
-4 16 -3 26 3 24 12 25 1 2 -18 -16 -13 -16 -13 5 -3 12 6 22 14 22 19 0 4 25
15 56 25 46 15 58 15 72 4 11 -9 14 -10 8 0 -7 12 0 15 36 15 10 0 14 5 11 13
-3 8 -10 11 -16 7 -5 -3 -7 -2 -4 3 3 6 2 16 -4 24 -7 12 -9 12 -9 -3 0 -14
-5 -17 -22 -11 -13 4 -28 7 -35 7 -7 0 -10 4 -7 8 2 5 16 4 29 -1 29 -11 35 4
8 19 -32 17 -9 19 87 5 52 -8 113 -16 135 -19 22 -3 65 -10 97 -16 31 -6 62
-9 70 -6 8 3 5 6 -7 6 -12 1 -46 8 -77 16 -78 20 -398 75 -439 75 -19 0 -29 4
-23 9 15 14 460 119 559 132 107 14 129 24 30 15 -118 -12 -231 -33 -414 -77
-46 -11 -85 -18 -88 -16 -2 3 20 17 49 32 150 78 265 181 397 355 124 162 295
424 281 428 -6 2 -12 2 -14 1 -1 -2 -51 -78 -111 -168 -234 -351 -307 -433
-495 -556 -60 -39 -303 -166 -308 -161 -2 3 2 31 8 63 6 32 13 67 16 79 2 14
21 27 61 43 114 46 204 91 260 129 71 49 176 158 167 174 -4 6 -3 8 3 5 6 -4
33 17 59 47 51 55 58 64 134 156 25 30 48 58 53 61 4 3 6 12 4 20 -2 8 -2 10
1 6 2 -4 13 2 24 15 11 13 30 35 44 50 13 15 24 29 24 31 0 2 -13 4 -29 5 -21
0 -45 -15 -102 -68 -41 -37 -76 -66 -78 -64 -3 3 21 30 52 62 31 32 57 61 57
65 0 4 -898 7 -1995 7 l-1996 0 28 -26 28 -26 -36 26 -36 26 -289 0 c-322 -1
-301 5 -216 -60 26 -19 25 -19 -23 1 -27 12 -56 26 -63 32 -7 5 -14 8 -17 5
-2 -2 18 -18 45 -36 28 -18 50 -37 50 -43 0 -23 -33 -19 -85 11 -73 42 -94 33
-27 -11 52 -34 64 -49 39 -49 -18 0 -74 32 -173 97 -67 45 -114 65 -114 49 0
-6 171 -112 193 -119 47 -17 0 -25 -175 -30 -289 -8 -431 -43 -591 -144 -22
-14 -36 -19 -32 -12 5 8 4 10 -3 5 -7 -4 -12 -15 -12 -24 0 -14 -2 -14 -9 -3
-8 12 -12 12 -26 -2 -22 -23 -40 -21 -65 5 -22 24 -26 38 -9 38 5 0 7 -5 3
-12 -4 -7 -3 -8 5 -4 15 10 5 26 -17 27 -14 0 -13 2 3 9 11 5 14 9 7 9 -10 1
-10 4 0 15 7 7 19 11 26 9 7 -3 12 0 10 8 -2 8 4 15 12 15 8 1 21 2 28 3 7 0
11 5 7 10 -3 6 3 9 14 8 11 0 18 -4 15 -8 -5 -9 18 -17 34 -12 6 3 12 11 12
19 0 8 5 14 11 14 5 0 8 -4 4 -9 -3 -5 -2 -12 2 -14 5 -3 9 8 9 24 1 19 -2 26
-10 22 -6 -3 0 6 13 20 27 30 43 38 19 10 -9 -10 -13 -24 -11 -31 5 -14 32 28
38 58 1 8 8 14 14 12 6 -1 11 5 11 13 0 7 8 19 17 24 10 6 13 11 6 11 -6 0
-10 9 -8 20 4 19 -5 20 -936 20 l-939 0 0 -2136z m3340 2116 c0 -5 -7 -7 -15
-4 -23 9 -18 -3 13 -34 15 -15 19 -20 7 -11 -34 27 -45 31 -45 16 0 -8 10 -19
23 -25 12 -6 17 -11 11 -11 -20 -2 -48 27 -49 50 -1 19 4 24 27 26 15 1 28 -2
28 -7z m55 0 c-3 -5 -12 -10 -18 -10 -7 0 -6 4 3 10 19 12 23 12 15 0z m-1528
-15 c0 -8 -4 -12 -9 -9 -5 3 -6 10 -3 15 9 13 12 11 12 -6z m1513 -10 c9 5 11
4 6 -4 -4 -6 0 -14 8 -17 9 -3 16 -10 16 -15 0 -5 -13 0 -30 13 -16 12 -30 27
-30 32 0 6 4 5 9 -3 5 -8 14 -10 21 -6z m90 -26 c0 -5 -4 -8 -9 -5 -5 3 -15
-2 -22 -11 -12 -15 -12 -16 3 -10 12 4 15 2 11 -9 -3 -7 1 -14 8 -14 7 0 9 -3
6 -7 -4 -3 -16 2 -27 12 -19 17 -19 19 -4 37 19 20 34 24 34 7z m14 -35 c3 -8
2 -12 -4 -9 -6 3 -10 10 -10 16 0 14 7 11 14 -7z m-80 -13 c9 -8 14 -16 11
-19 -3 -3 -12 3 -19 14 -8 10 -18 16 -22 12 -4 -4 -1 -14 6 -23 20 -23 6 -18
-18 8 l-22 23 24 -1 c12 0 30 -6 40 -14z m143 -26 c0 -8 -4 -12 -9 -9 -5 3 -6
10 -3 15 9 13 12 11 12 -6z m-96 -12 c13 -16 12 -17 -3 -4 -10 7 -18 15 -18
17 0 8 8 3 21 -13z m67 -18 c-3 -3 -9 2 -12 12 -6 14 -5 15 5 6 7 -7 10 -15 7
-18z m2500 2 c2 -12 -3 -17 -17 -17 -12 0 -21 6 -21 13 0 31 32 34 38 4z
m-4796 -31 c7 4 8 2 4 -4 -4 -7 -2 -12 4 -12 6 0 8 -4 5 -10 -3 -6 1 -7 9 -4
20 8 33 -23 18 -38 -19 -19 -65 8 -59 33 4 15 0 23 -14 26 -18 5 -19 6 -2 19
15 10 19 10 21 -2 2 -8 8 -11 14 -8z m2243 2 c4 0 12 6 16 14 7 10 9 9 9 -4 0
-10 -5 -18 -11 -18 -8 0 -8 -5 1 -15 11 -14 14 -13 24 1 10 14 14 13 31 -8
l20 -23 -22 19 c-20 16 -23 17 -23 3 0 -9 8 -21 18 -26 9 -6 12 -11 6 -11 -15
0 -94 69 -94 83 0 8 3 7 9 -1 4 -8 12 -14 16 -14z m2525 -63 c0 -8 -4 -15 -9
-15 -13 0 -22 16 -14 24 11 11 23 6 23 -9z m-757 -33 c15 -15 27 -34 27 -41 0
-7 4 -10 8 -7 5 3 15 -6 22 -19 7 -13 30 -36 51 -51 22 -15 36 -31 32 -38 -3
-6 5 -1 19 12 28 26 40 28 32 7 -4 -8 -9 -13 -13 -12 -10 6 -41 -32 -31 -38 6
-4 10 -15 10 -26 0 -17 -3 -18 -22 -8 -12 7 -39 30 -61 53 l-38 41 14 -35 c8
-19 27 -61 42 -93 14 -31 25 -63 22 -70 -3 -7 -7 -4 -12 8 -4 11 -11 29 -16
40 -8 17 -8 16 -3 -5 6 -24 5 -24 -26 8 -17 17 -28 37 -25 42 3 5 0 7 -8 5 -8
-4 -19 6 -28 22 -8 15 -18 31 -24 35 -6 5 -6 8 1 8 21 0 2 54 -30 87 -48 49
-58 63 -46 63 6 0 8 5 5 10 -3 6 1 10 9 10 9 0 16 5 16 10 0 21 47 9 73 -18z
m-566 -42 c6 -8 9 -18 7 -22 -3 -5 -1 -8 4 -8 20 0 20 -30 0 -55 -11 -14 -17
-29 -13 -33 3 -4 11 1 16 11 13 22 44 23 35 1 -3 -9 -6 -20 -6 -25 0 -5 -5 -9
-10 -9 -7 0 -7 6 0 20 7 14 7 20 0 20 -5 0 -10 -7 -10 -15 0 -23 -26 -18 -55
11 -28 28 -28 38 -1 28 9 -3 13 -10 10 -15 -3 -5 3 -6 12 -2 10 4 13 8 7 10
-7 3 -9 12 -6 21 6 15 5 15 -11 3 -9 -8 -16 -10 -15 -5 4 24 -3 24 -22 0 -25
-32 -46 -22 -33 15 4 13 7 27 6 31 -1 4 5 5 14 1 13 -5 13 -7 -1 -23 -8 -9
-15 -20 -15 -25 0 -4 11 4 25 19 27 29 31 41 15 51 -6 4 -7 -1 -3 -12 5 -14 3
-15 -7 -6 -16 15 -4 34 18 26 15 -6 16 -5 2 13 -14 18 -14 18 5 4 11 -8 25
-22 32 -30z m-74 19 c-5 -5 -25 -18 -44 -27 -23 -12 -36 -27 -41 -50 -5 -19
-13 -30 -19 -26 -8 4 -7 9 1 14 8 5 9 16 5 30 -5 15 -4 20 4 16 6 -4 11 -3 11
3 0 5 16 15 35 22 19 7 35 17 35 21 0 4 5 8 12 8 8 0 9 -3 1 -11z m369 -31
c13 -13 41 -44 62 -71 31 -38 36 -50 26 -62 -6 -8 -10 -20 -7 -27 4 -8 6 -7 6
4 2 37 21 25 60 -37 23 -35 41 -69 41 -74 0 -4 7 -14 15 -21 8 -6 14 -15 13
-18 -2 -21 3 -42 10 -38 10 6 37 -63 28 -71 -3 -4 -6 1 -6 10 0 9 -5 17 -11
17 -5 0 -7 5 -3 12 4 6 3 8 -3 5 -15 -10 -22 -43 -12 -58 6 -10 9 -8 9 9 l0
22 21 -21 c21 -21 21 -23 5 -56 -9 -19 -13 -32 -8 -29 5 3 8 -15 8 -40 -1 -24
-4 -44 -8 -44 -5 0 -8 14 -8 30 0 44 -37 147 -71 201 -19 29 -27 53 -23 65 4
13 3 15 -3 7 -6 -9 -28 9 -76 62 -38 41 -88 89 -113 106 l-45 31 -36 -28 c-20
-15 -49 -49 -66 -76 -17 -26 -31 -47 -33 -46 -1 2 3 22 9 46 8 29 16 42 29 42
15 0 16 4 7 27 -9 24 -5 31 38 75 46 47 69 60 61 36 -3 -7 -10 -13 -15 -13 -6
0 -15 -4 -20 -9 -5 -5 -2 -6 6 -1 9 5 12 3 9 -6 -3 -8 -13 -13 -23 -11 -11 2
-14 -1 -9 -9 5 -8 3 -10 -6 -4 -9 5 -11 4 -6 -3 5 -8 15 -8 33 -1 14 5 28 7
31 4 3 -3 -1 -5 -9 -5 -11 0 -11 -2 1 -10 8 -5 18 -10 22 -10 9 0 4 26 -9 41
-8 10 -8 17 1 24 17 15 45 15 39 -1 -2 -7 -11 -10 -19 -7 -21 8 -17 -6 9 -28
18 -16 19 -18 3 -12 -15 5 -17 3 -10 -8 5 -8 9 -18 9 -23 0 -5 5 -11 11 -13 7
-2 10 11 9 37 -1 22 2 40 7 40 5 0 7 -4 3 -9 -3 -6 3 -8 15 -6 24 5 37 -12 21
-28 -8 -8 -11 -8 -11 1 0 7 -5 12 -11 12 -8 0 -8 -5 1 -15 7 -8 15 -13 19 -11
4 3 13 1 20 -3 9 -6 10 -11 2 -15 -6 -4 -11 -2 -11 4 0 6 -4 8 -10 5 -16 -10
-11 -23 8 -20 9 1 22 -2 29 -7 7 -6 14 -5 18 2 4 6 -1 18 -11 26 -11 9 -12 12
-4 8 8 -4 3 5 -12 21 -16 15 -28 33 -28 39 0 6 -5 4 -10 -4 -7 -12 -10 -8 -11
15 0 24 -2 26 -8 11 -7 -19 -8 -19 -13 1 -4 17 -11 20 -29 16 -19 -4 -21 -3
-9 6 22 16 36 13 62 -11z m-398 -25 c-4 -16 -13 -31 -20 -36 -7 -4 -11 -14 -7
-22 4 -11 1 -13 -11 -9 -22 8 -20 21 5 34 16 9 18 14 8 26 -9 11 -8 14 5 14 9
0 16 5 16 10 0 6 2 10 5 10 3 0 2 -12 -1 -27z m-91 -9 c-8 -4 -9 -14 -3 -34 6
-21 5 -29 -3 -27 -7 1 -11 -3 -10 -9 1 -7 -8 -9 -22 -6 -15 2 -25 0 -25 -7 0
-7 4 -9 10 -6 5 3 17 2 26 -3 14 -8 14 -10 0 -21 -9 -8 -16 -10 -16 -5 0 5 -5
2 -11 -6 -9 -13 -10 -12 -5 3 3 10 0 20 -8 23 -8 3 -13 14 -11 25 6 29 -10 23
-52 -20 -59 -59 -174 -146 -167 -124 6 15 5 16 -7 5 -8 -7 -15 -17 -15 -22 -3
-20 -4 -21 -15 -15 -14 9 29 55 46 49 7 -3 16 -1 20 5 3 6 0 11 -7 11 -7 0 -3
7 9 15 12 8 29 12 37 9 12 -4 15 -2 10 9 -6 18 23 37 45 29 8 -3 11 0 7 7 -4
6 0 11 9 11 9 0 14 4 11 9 -4 5 16 23 43 39 38 24 52 28 61 19 10 -9 11 -9 5
1 -7 13 20 42 40 41 6 0 5 -3 -2 -5z m92 -44 c3 -5 1 -10 -4 -10 -6 0 -11 5
-11 10 0 6 2 10 4 10 3 0 8 -4 11 -10z m1355 -9 c0 -6 -4 -13 -10 -16 -5 -3
-10 1 -10 9 0 9 5 16 10 16 6 0 10 -4 10 -9z m-4341 -33 c-13 -18 -48 -67 -79
-108 -31 -42 -92 -134 -135 -205 -43 -72 -83 -131 -87 -133 -4 -2 -8 -11 -8
-20 -1 -15 -2 -15 -11 1 -5 9 -7 22 -4 27 10 16 -18 7 -32 -10 -10 -12 -11 -9
-2 18 6 18 9 36 5 39 -3 4 -6 1 -6 -5 0 -12 -56 41 -63 60 -7 20 12 48 31 48
10 0 28 7 40 16 12 8 22 12 22 8 0 -4 6 0 13 9 6 10 27 18 45 20 21 1 31 6 27
15 -2 7 2 15 10 18 8 4 15 13 15 21 0 8 6 27 13 41 58 117 59 118 147 144 25
7 48 13 52 13 3 0 10 3 14 8 17 17 14 5 -7 -25z m2921 6 c0 -8 -19 -13 -24 -6
-3 5 1 9 9 9 8 0 15 -2 15 -3z m227 -46 c-2 -13 -4 -5 -4 17 -1 22 1 32 4 23
2 -10 2 -28 0 -40z m-356 8 c-10 -12 -8 -16 10 -21 20 -7 19 -8 -14 -29 -20
-11 -49 -31 -66 -44 l-31 -23 0 22 c0 21 -2 20 -30 -11 -17 -19 -26 -36 -20
-40 5 -3 -22 -32 -60 -64 -39 -32 -86 -76 -105 -97 -19 -22 -35 -35 -35 -30 0
6 5 13 10 16 6 4 7 11 4 17 -9 14 -24 -11 -24 -39 0 -13 -4 -23 -9 -23 -5 0
-7 10 -4 23 5 21 5 21 -10 2 -8 -10 -13 -26 -10 -35 4 -13 4 -13 -6 0 -10 14
-16 7 -12 -14 1 -4 -6 -20 -15 -33 -11 -18 -19 -22 -26 -15 -8 8 -6 18 5 35
22 34 118 134 116 122 -3 -21 2 -25 15 -13 11 10 11 16 2 28 -9 13 -9 13 6 2
14 -11 18 -11 25 1 4 8 20 22 35 32 26 16 29 35 7 35 -6 0 -7 -4 -4 -10 3 -5
2 -10 -3 -10 -4 0 -18 -9 -30 -20 -12 -12 -22 -17 -22 -13 0 15 186 180 197
175 3 -2 10 2 15 10 6 9 7 6 3 -10 -6 -21 -5 -22 14 -11 15 10 17 16 9 27 -9
10 -4 20 23 43 19 16 33 35 31 42 -3 9 -1 9 9 0 9 -10 10 -15 0 -27z m319 10
c0 -8 6 -17 13 -19 7 -3 5 -6 -5 -6 -10 -1 -18 1 -18 3 0 2 -3 11 -6 20 -3 9
-1 16 5 16 6 0 11 -6 11 -14z m-71 -83 c9 -8 10 -13 4 -13 -7 0 -22 15 -34 33
-16 23 -17 27 -3 12 10 -11 25 -26 33 -32z m96 36 c4 -5 4 -22 0 -37 l-8 -27
-7 25 c-5 14 -8 31 -9 38 -1 15 15 16 24 1z m-145 -24 c7 -9 8 -15 2 -15 -5 0
-12 7 -16 15 -3 8 -4 15 -2 15 2 0 9 -7 16 -15z m300 12 c0 -2 -12 -14 -27
-28 l-28 -24 24 28 c23 25 31 32 31 24z m-336 -15 c2 -4 -5 -9 -17 -9 -17 -2
-19 0 -7 7 18 12 18 12 24 2z m-279 -51 c3 -5 1 -12 -5 -16 -5 -3 -10 1 -10 9
0 18 6 21 15 7z m-138 -49 c-8 -10 -12 -11 -15 -3 -3 9 -8 8 -20 -1 -10 -7 -6
0 7 15 18 19 27 24 32 15 4 -7 3 -19 -4 -26z m-73 -63 c-48 -41 -54 -45 -54
-30 0 5 9 13 20 16 11 3 20 11 20 16 0 6 -5 7 -12 3 -7 -4 -8 -3 -4 4 4 6 13
9 22 5 8 -3 14 -2 13 3 -3 16 1 20 21 21 15 1 8 -8 -26 -38z m-1561 -6 c-7 -2
-19 -2 -25 0 -7 3 -2 5 12 5 14 0 19 -2 13 -5z m72 -13 c25 -11 -1 -11 -35 0
-20 6 -21 8 -5 8 11 0 29 -3 40 -8z m-569 -22 c4 4 3 0 -4 -9 -13 -18 -7 -29
18 -29 70 0 606 -187 649 -226 7 -6 -32 -33 -47 -34 -25 0 -172 62 -167 71 4
5 0 6 -8 4 -7 -3 -31 2 -53 11 -57 24 -95 34 -89 23 4 -5 12 -9 20 -9 8 0 44
-13 80 -30 36 -16 95 -44 132 -61 l67 -30 -30 -24 c-16 -13 -33 -24 -37 -25
-5 0 -88 40 -185 89 -239 120 -287 138 -467 169 -118 20 -274 20 -362 -1 -35
-8 -63 -11 -63 -7 0 4 12 10 28 13 60 12 118 31 133 44 12 10 18 11 21 3 2 -8
11 -8 33 1 17 6 53 13 80 16 28 2 55 10 61 19 13 16 56 20 92 9 16 -5 22 -3
22 8 0 20 41 27 56 10 6 -7 15 -9 20 -5z m664 2 l25 -8 -25 0 c-14 0 -36 4
-50 8 l-25 8 25 0 c14 0 36 -4 50 -8z m-1136 -8 c3 -5 -1 -9 -9 -9 -8 0 -12 4
-9 9 3 4 7 8 9 8 2 0 6 -4 9 -8z m2470 -1 c7 -10 -19 -34 -41 -37 -11 -2 -12
1 -3 11 7 8 15 14 18 13 20 -2 25 3 12 12 -9 6 -10 10 -3 10 6 0 14 -4 17 -9z
m-1259 -11 c7 -12 -2 -12 -30 0 -19 8 -19 9 2 9 12 1 25 -3 28 -9z m605 -25
c0 -9 -6 -12 -17 -8 -10 4 -14 2 -10 -4 4 -6 -13 -25 -36 -44 -23 -18 -63 -56
-88 -84 -52 -56 -159 -195 -159 -206 0 -4 33 27 73 69 87 92 99 102 112 95 5
-4 7 -2 2 2 -4 5 3 19 15 32 15 16 25 20 34 12 9 -8 11 -6 8 8 -4 13 6 27 33
46 37 27 38 27 41 6 2 -12 -6 -31 -19 -45 -24 -25 -41 -24 -33 4 5 14 4 14 -4
2 -6 -8 -8 -18 -6 -22 3 -5 -16 -27 -43 -50 -129 -113 -311 -310 -406 -442 -5
-7 -12 -4 -22 8 -17 23 -20 40 -5 31 6 -3 10 -1 10 6 0 8 4 8 15 -1 12 -10 17
-8 28 16 34 80 130 223 229 342 66 81 162 182 172 182 3 0 18 14 34 30 34 34
42 37 42 15z m1902 -133 c-5 -1 -8 -17 -6 -35 3 -24 1 -28 -6 -17 -8 11 -9 4
-5 -25 4 -31 3 -36 -5 -20 -8 16 -9 14 -5 -14 3 -19 1 -39 -3 -45 -5 -6 -14
-37 -21 -69 -7 -32 -15 -57 -17 -55 -2 3 3 36 10 74 8 38 17 98 21 134 4 36
12 68 19 72 6 4 12 31 12 60 3 78 7 82 11 8 2 -35 0 -66 -5 -68z m-1302 108
c0 -5 -5 -10 -11 -10 -5 0 -7 5 -4 10 3 6 8 10 11 10 2 0 4 -4 4 -10z m-1523
-16 c-3 -3 -12 -4 -19 -1 -8 3 -5 6 6 6 11 1 17 -2 13 -5z m47 -13 c4 -5 -3
-7 -14 -4 -23 6 -26 13 -6 13 8 0 17 -4 20 -9z m1456 5 c0 -2 -7 -9 -15 -16
-13 -11 -14 -10 -9 4 5 14 24 23 24 12z m-1369 -30 c24 -8 77 -24 117 -37 39
-12 72 -26 72 -31 0 -4 -1 -8 -3 -8 -5 0 -151 49 -207 69 -63 23 -46 28 21 7z
m3359 -16 c0 -11 -5 -22 -11 -26 -8 -4 -9 0 -4 15 4 12 2 21 -4 21 -6 0 -11 4
-11 10 0 5 7 7 15 4 8 -4 15 -14 15 -24z m-2040 -22 c-12 -18 -35 -54 -52 -81
-17 -26 -33 -45 -35 -43 -5 4 13 42 29 60 40 49 48 61 53 77 4 11 11 19 17 19
5 0 0 -15 -12 -32z m2780 12 c0 -5 -5 -10 -11 -10 -5 0 -7 5 -4 10 3 6 8 10
11 10 2 0 4 -4 4 -10z m30 -4 c0 -2 -7 -9 -15 -16 -13 -11 -14 -10 -9 4 5 14
24 23 24 12z m30 -6 c0 -5 -4 -10 -10 -10 -5 0 -10 5 -10 10 0 6 5 10 10 10 6
0 10 -4 10 -10z m-954 -72 c-4 -40 -11 -102 -16 -138 -6 -36 -12 -75 -13 -87
-2 -12 -6 -25 -9 -28 -6 -7 1 -45 9 -45 2 0 36 14 75 30 39 17 73 29 75 27 2
-2 -51 -32 -118 -67 -92 -47 -120 -58 -114 -44 23 54 58 190 72 279 14 90 29
145 41 145 2 0 1 -33 -2 -72z m-1860 24 c-18 -16 -18 -16 -6 6 6 13 14 21 18
18 3 -4 -2 -14 -12 -24z m-57 -89 c-67 -86 -76 -96 -53 -55 10 19 33 51 51 72
18 20 29 40 26 44 -3 3 2 6 11 6 13 0 5 -17 -35 -67z m205 -227 c11 -45 12
-56 2 -53 -19 7 -185 127 -192 138 -8 14 17 49 94 131 l67 71 7 -115 c4 -63
13 -141 22 -172z m-815 202 c5 -13 7 -25 5 -27 -7 -8 -44 31 -38 40 9 16 24
10 33 -13z m529 -12 c-13 -19 -24 -33 -26 -32 -5 5 33 66 41 66 4 0 -3 -15
-15 -34z m2290 -93 c-107 -278 -174 -358 -411 -488 -37 -21 -70 -35 -72 -33
-3 3 11 42 29 89 23 56 39 83 49 81 8 -1 27 14 42 34 21 28 32 34 50 30 27 -7
41 7 85 88 18 32 30 67 27 77 -3 10 -1 19 5 19 5 0 15 6 23 13 7 6 32 28 56
47 23 19 63 54 88 77 25 24 49 43 52 43 4 0 -7 -35 -23 -77z m-2333 17 c-9
-16 -18 -30 -21 -30 -2 0 2 14 11 30 9 17 18 30 21 30 2 0 -2 -13 -11 -30z
m-602 -40 c29 -23 38 -25 35 -8 -5 20 35 22 49 2 15 -20 18 -68 4 -60 -5 4
-12 0 -15 -6 -3 -7 -3 -2 0 11 5 20 3 23 -10 18 -10 -4 -15 -3 -11 3 3 6 2 10
-4 10 -6 0 -9 -22 -7 -54 4 -73 35 -122 86 -137 29 -9 43 -21 55 -46 10 -22
29 -40 49 -48 28 -12 37 -25 58 -85 14 -38 21 -70 16 -70 -16 0 -92 42 -173
95 -98 65 -164 133 -203 211 -49 98 -49 101 -6 145 21 21 41 39 45 39 3 0 18
-9 32 -20z m332 -155 c13 -16 33 -64 45 -105 12 -41 26 -79 30 -84 5 -4 16 6
25 23 18 37 35 32 35 -9 0 -42 17 -46 24 -5 4 19 11 35 16 35 8 0 66 -101 89
-154 2 -5 -20 -7 -53 -3 -31 3 -56 4 -56 3 0 -2 27 -13 60 -25 33 -12 66 -28
73 -36 8 -7 20 -49 26 -92 23 -143 69 -310 109 -395 37 -80 181 -307 226 -357
33 -37 0 -22 -105 50 -112 77 -229 185 -278 258 -91 133 -201 392 -330 775
-107 317 -106 306 -25 221 36 -38 76 -83 89 -100z m1920 146 c-9 -8 -185 -101
-192 -101 -1 0 0 7 3 15 4 8 10 15 15 15 4 0 45 18 91 40 88 42 97 45 83 31z
m-2685 -5 c0 -2 -8 -10 -17 -17 -16 -13 -17 -12 -4 4 13 16 21 21 21 13z
m-156 -51 c3 -9 0 -15 -9 -15 -9 0 -12 6 -9 15 4 8 7 15 9 15 2 0 5 -7 9 -15z
m56 0 c-14 -17 0 -21 17 -4 13 13 33 4 33 -14 0 -8 -4 -7 -9 2 -8 12 -12 13
-26 1 -9 -7 -28 -15 -43 -16 -23 -2 -24 -1 -9 7 9 6 14 15 11 21 -4 6 -2 8 4
4 6 -3 13 -2 17 4 3 5 9 10 12 10 3 0 0 -7 -7 -15z m670 -10 c0 -9 -6 -12 -15
-9 -8 4 -12 10 -9 15 8 14 24 10 24 -6z m-767 -11 c-5 -13 -1 -15 18 -9 18 5
20 4 9 -4 -8 -6 -23 -8 -34 -5 -12 4 -16 2 -12 -5 6 -9 -27 -17 -56 -12 -5 0
-8 -3 -8 -9 0 -5 -10 -10 -22 -10 -12 0 -19 -2 -16 -5 3 -3 50 1 104 10 114
18 294 27 294 14 0 -5 1 -11 3 -14 1 -2 -63 -7 -143 -9 -96 -3 -173 -11 -227
-24 -70 -17 -83 -18 -83 -5 0 8 5 11 10 8 6 -3 10 -1 10 5 0 6 12 16 28 23 15
6 36 20 46 29 14 13 22 15 27 7 5 -8 14 -5 30 10 27 25 30 26 22 5z m1231 -6
c-4 -7 -3 -8 5 -4 7 4 39 -9 74 -30 l63 -38 2 -59 c3 -71 23 -113 63 -135 66
-37 57 -38 -86 -13 l-148 27 -13 34 c-7 19 -13 48 -13 63 -1 16 -6 37 -11 48
-8 14 -7 25 3 39 8 11 17 18 20 15 4 -3 5 -2 2 1 -6 9 27 64 38 64 4 0 5 -5 1
-12z m-720 -24 c9 -23 8 -24 -19 -24 -27 0 -32 9 -13 28 16 16 25 15 32 -4z
m2821 -13 c-3 -11 -11 -20 -17 -18 -6 1 -13 -4 -16 -12 -3 -8 0 -11 7 -7 7 5
9 1 5 -8 -3 -9 -11 -13 -17 -9 -6 4 -8 0 -4 -11 4 -11 3 -15 -4 -11 -6 4 -13
-2 -16 -14 -3 -13 -13 -21 -26 -21 -18 0 -17 2 7 21 14 11 26 25 26 31 0 7
-12 1 -27 -13 l-28 -24 24 27 c13 15 28 25 32 22 5 -3 9 2 9 10 0 9 9 21 20
28 11 7 20 19 20 27 0 8 3 12 6 8 3 -3 3 -15 -1 -26z m-2976 -4 c0 -8 -2 -8
-6 1 -4 10 -8 10 -21 0 -15 -12 -16 -11 -3 4 14 19 32 15 30 -5z m2915 -13 c3
-8 2 -12 -4 -9 -6 3 -10 10 -10 16 0 14 7 11 14 -7z m-2468 -15 c0 -10 -3 -16
-7 -13 -4 2 -10 -4 -12 -13 -3 -10 -5 -4 -6 13 -1 19 4 31 12 31 7 0 13 -8 13
-18z m-44 -21 c-8 -8 -9 -4 -5 13 4 13 8 18 11 10 2 -7 -1 -18 -6 -23z m2173
11 c-19 -58 -96 -209 -105 -204 -5 3 -10 2 -10 -2 0 -15 -82 -32 -275 -58
-104 -13 -209 -27 -232 -30 -43 -6 -43 -6 -43 24 0 17 5 32 10 32 6 1 13 2 18
3 4 1 22 6 40 10 18 4 30 11 28 15 -10 16 50 3 84 -17 65 -41 179 -19 228 43
12 15 24 48 28 74 l6 46 106 41 c127 50 125 49 117 23z m-2391 -9 c18 -18 -1
-21 -50 -9 -72 17 -81 33 -14 25 30 -4 59 -11 64 -16z m870 -44 c-1 -20 -1
-36 1 -36 1 0 16 7 31 15 44 23 58 17 65 -23 2 -18 23 -31 47 -31 56 0 61 -3
51 -28 -10 -27 10 -32 35 -8 17 17 26 19 26 6 0 -17 -73 -43 -120 -43 -103 1
-167 73 -152 170 5 35 18 18 16 -22z m1746 13 c0 -15 -18 -19 -23 -6 -3 8 1
14 9 14 8 0 14 -4 14 -8z m-69 -32 c-10 -9 -11 -8 -5 6 3 10 9 15 12 12 3 -3
0 -11 -7 -18z m59 -14 c0 -19 -118 -308 -175 -428 -105 -223 -213 -369 -395
-531 -57 -51 -106 -92 -107 -90 -2 2 28 63 66 137 38 74 81 168 95 210 23 70
79 339 71 347 -1 2 -85 -38 -185 -88 l-183 -92 -83 83 -84 83 21 22 c21 22 44
27 184 39 22 2 123 7 224 11 l184 7 71 62 c39 34 82 70 95 81 67 54 156 136
157 144 1 6 3 13 4 18 1 4 2 10 1 15 -1 4 8 2 19 -5 11 -7 20 -18 20 -25z
m-2815 17 c3 -5 1 -10 -4 -10 -6 0 -11 5 -11 10 0 6 2 10 4 10 3 0 8 -4 11
-10z m2350 -47 c-13 -73 -67 -113 -152 -113 -45 0 -123 33 -110 47 3 3 16 -2
29 -11 27 -19 42 -21 31 -3 -17 28 -11 34 33 30 39 -3 46 0 55 21 6 13 26 31
45 40 36 17 58 22 37 8 -10 -6 -10 -12 2 -28 14 -18 14 -17 15 14 0 17 5 32
11 32 7 0 9 -12 4 -37z m385 12 c7 -9 8 -15 2 -15 -5 0 -12 7 -16 15 -3 8 -4
15 -2 15 2 0 9 -7 16 -15z m-1313 -111 c26 -7 28 -14 11 -36 -12 -15 -22 -15
-113 -1 -103 16 -147 33 -84 33 20 0 56 10 80 23 43 23 44 23 64 5 11 -10 30
-21 42 -24z m-1539 -105 c-3 -8 -7 -3 -11 10 -4 17 -3 21 5 13 5 -5 8 -16 6
-23z m142 -149 c0 -5 -4 -10 -10 -10 -5 0 -10 5 -10 10 0 6 5 10 10 10 6 0 10
-4 10 -10z m134 -54 c-3 -8 -12 -17 -19 -20 -9 -3 -12 0 -8 10 3 7 10 14 15
14 6 0 7 7 4 15 -15 38 -16 48 -2 23 9 -15 13 -33 10 -42z m1697 -167 c26 -33
27 -38 13 -50 -16 -13 -125 -51 -131 -45 -2 1 0 52 4 111 l6 109 40 -45 c21
-24 52 -60 68 -80z m-2447 70 c18 3 23 0 23 -14 0 -10 -4 -12 -10 -6 -5 5 -15
7 -22 5 -16 -6 -29 12 -19 27 5 8 9 8 14 -1 4 -6 10 -11 14 -11z m26 -43 c0
-2 -8 -10 -17 -17 -16 -13 -17 -12 -4 4 13 16 21 21 21 13z m1330 -31 c0 -9 7
-30 16 -47 9 -16 11 -28 6 -24 -5 3 -15 -5 -22 -18 -11 -22 -9 -28 20 -60 18
-19 37 -33 43 -29 6 3 7 2 4 -4 -8 -13 60 -77 173 -163 55 -41 102 -85 111
-103 9 -18 32 -61 51 -97 255 -471 408 -768 408 -794 0 -14 -4 -27 -9 -30 -10
-6 -222 52 -235 65 -6 5 6 31 28 64 27 41 35 62 30 78 -8 27 -257 518 -260
514 -1 -1 -14 -61 -29 -132 -24 -115 -100 -367 -124 -414 -9 -15 -19 -16 -93
-8 -46 5 -197 6 -336 3 -196 -4 -251 -2 -245 7 25 40 224 265 291 328 89 84
88 82 97 244 9 157 34 486 40 512 3 13 10 22 16 20 7 -1 14 4 16 11 3 7 -1 11
-8 10 -11 -3 -14 16 -10 65 1 21 21 23 21 2z m1859 -244 c6 -93 11 -247 11
-341 0 -144 2 -170 15 -170 8 0 15 -5 15 -12 0 -6 3 -8 6 -5 4 4 2 13 -4 20
-9 10 -9 14 1 14 7 0 14 -13 15 -29 2 -18 -2 -27 -8 -23 -5 3 -10 2 -10 -3 0
-4 23 -28 51 -53 28 -24 91 -83 139 -131 49 -49 96 -88 107 -87 15 0 15 2 -3
9 -26 10 -35 23 -39 56 -3 26 10 33 19 9 3 -8 0 -15 -6 -15 -6 0 -9 -3 -5 -6
14 -14 26 8 17 31 -7 18 -5 25 7 29 14 6 14 8 -1 25 -10 11 -13 22 -8 25 6 3
12 0 15 -6 2 -7 8 -9 13 -5 12 11 -16 26 -35 20 -13 -5 -14 -3 -3 8 6 7 12 18
12 24 0 5 -5 2 -11 -8 -6 -10 -15 -14 -22 -10 -7 4 -6 -1 2 -10 8 -10 12 -20
9 -22 -2 -3 -15 10 -28 28 -12 17 -17 27 -10 20 13 -12 40 -7 40 8 0 4 -7 6
-15 2 -9 -3 -15 -2 -14 3 4 23 -4 35 -38 59 -21 14 -35 25 -33 25 3 0 47 -21
99 -46 52 -25 101 -42 110 -39 8 3 12 3 9 -1 -4 -4 3 -15 16 -25 28 -22 40
-25 30 -6 -4 6 -4 9 0 5 4 -3 8 -10 8 -15 1 -11 41 -39 52 -35 5 2 6 -7 3 -19
-4 -16 -3 -19 6 -10 15 15 27 14 27 -3 0 -8 5 -18 12 -22 7 -4 8 -3 4 4 -4 7
-2 12 3 12 6 0 11 -4 11 -10 0 -5 7 -10 15 -10 8 0 15 -4 15 -10 0 -5 5 -10
10 -10 6 0 20 -9 32 -20 21 -19 15 -26 -16 -21 -5 1 -6 -4 -3 -12 3 -7 -1 -14
-8 -14 -7 0 -11 6 -8 14 3 7 0 13 -6 13 -6 0 -11 -4 -11 -8 0 -5 -7 -9 -15 -9
-9 0 -14 5 -12 11 3 6 10 10 16 9 6 -2 11 2 11 8 0 6 7 9 15 5 8 -3 15 -1 15
5 0 13 -52 2 -61 -13 -4 -5 -9 -3 -12 6 -7 18 -44 17 -52 -2 -2 -7 0 -10 5 -7
6 3 13 -1 16 -10 5 -12 9 -13 20 -4 8 6 14 8 14 3 -1 -12 -39 -61 -40 -50 0 5
-7 3 -15 -4 -10 -9 -15 -9 -15 -1 0 6 -7 11 -15 11 -8 0 -15 6 -15 14 0 11 -8
12 -36 6 -29 -7 -34 -5 -30 6 3 8 3 14 0 14 -2 0 -9 -11 -14 -25 -11 -28 -28
-33 -36 -10 -4 8 -11 15 -17 15 -6 0 24 -36 68 -80 53 -53 74 -81 64 -84 -8
-2 -88 -7 -179 -10 -97 -3 -191 -12 -229 -21 -36 -9 -68 -12 -72 -8 -24 25
-201 396 -232 488 -21 61 -41 118 -45 128 -8 19 -64 -126 -188 -478 l-66 -189
42 -39 c23 -21 39 -41 37 -43 -15 -15 -257 -34 -257 -20 0 3 43 96 96 208 53
112 125 275 160 363 82 203 72 183 181 363 51 85 90 159 87 164 -4 6 -3 8 3 5
8 -5 148 217 162 257 6 16 -35 -37 -42 -54 -5 -13 -6 -13 -6 0 -1 9 11 33 26
55 24 36 27 37 34 18 4 -12 12 -98 18 -192z m-2729 137 c0 -15 -32 -21 -40 -7
-13 20 9 43 26 28 8 -6 14 -16 14 -21z m913 10 c3 -8 -4 -13 -18 -13 -18 0
-21 3 -13 13 6 6 14 12 18 12 4 0 10 -6 13 -12z m1717 -72 c0 -3 -4 -8 -10
-11 -5 -3 -10 -1 -10 4 0 6 5 11 10 11 6 0 10 -2 10 -4z m-4565 -178 c13 -38
10 -63 -6 -59 -8 2 -18 4 -24 5 -5 1 -16 6 -24 10 -10 7 -12 6 -6 -4 5 -9 4
-11 -3 -6 -7 4 -11 22 -9 40 2 28 6 32 33 34 25 2 33 -2 39 -20z m-175 -14 c0
-15 -58 -49 -68 -39 -3 3 -7 15 -9 28 -4 21 -3 21 11 2 9 -12 16 -15 17 -7 1
11 4 25 8 36 3 10 41 -8 41 -20z m2898 -104 l-3 -121 -130 -43 c-71 -25 -186
-70 -254 -100 -68 -31 -125 -55 -127 -53 -5 5 15 123 26 151 13 35 216 167
357 232 65 29 121 54 126 54 4 0 6 -54 5 -120z m2792 -110 c0 -4 -7 -11 -16
-14 -13 -5 -14 -4 -6 7 7 8 8 18 4 22 -4 5 -1 5 6 1 6 -4 12 -11 12 -16z
m-5810 -100 c0 -13 -1 -13 -10 0 -5 8 -10 22 -10 30 0 13 1 13 10 0 5 -8 10
-22 10 -30z m5816 18 c5 -7 3 -8 -6 -3 -10 6 -12 4 -6 -11 5 -14 4 -16 -5 -7
-6 6 -8 16 -5 22 9 14 13 14 22 -1z m-5786 -15 c0 -14 2 -15 9 -4 5 7 14 10
20 7 6 -4 11 -2 11 4 0 7 6 8 18 1 17 -9 57 -18 90 -20 8 -1 11 -10 8 -28 -3
-15 0 -34 7 -42 9 -12 9 -13 0 -7 -8 4 -22 -3 -36 -19 l-22 -26 -25 21 c-14
12 -29 25 -35 28 -27 18 -72 102 -55 102 6 0 10 -8 10 -17z m2263 -19 c-5 -13
-8 -13 -24 2 -23 21 -15 38 11 24 12 -6 17 -16 13 -26z m648 9 c-12 -20 -14
-14 -5 12 4 9 9 14 11 11 3 -2 0 -13 -6 -23z m2109 -17 c14 -18 15 -18 -27
-20 -28 -2 -31 1 -28 24 1 14 3 26 4 28 2 6 38 -17 51 -32z m-2156 -18 c-8
-13 -21 -9 -28 8 -3 8 -2 12 4 9 6 -3 10 0 10 7 0 10 3 9 9 -2 6 -8 7 -18 5
-22z m-25 -37 c-2 -6 -10 2 -17 17 -11 25 -11 25 4 10 9 -9 15 -21 13 -27z
m-36 15 c4 -10 1 -13 -8 -9 -8 3 -12 9 -9 14 7 12 11 11 17 -5z m-528 -36 c-6
-9 -9 -9 -16 1 -10 17 0 34 13 21 6 -6 7 -16 3 -22z m2840 12 c-3 -3 -11 0
-18 7 -9 10 -8 11 6 5 10 -3 15 -9 12 -12z m-2325 -14 c0 -6 -6 -5 -15 2 -8 7
-15 14 -15 16 0 2 7 1 15 -2 8 -4 15 -11 15 -16z m-35 2 c3 -5 0 -7 -8 -4 -7
2 -14 -1 -15 -8 0 -7 -2 -24 -4 -36 l-2 -24 -20 24 -19 23 5 -22 c5 -20 4 -21
-13 -12 -13 6 -19 6 -19 -1 0 -5 -7 -10 -15 -10 -20 0 -57 -38 -50 -50 4 -6 1
-10 -5 -10 -6 0 -8 -4 -5 -10 3 -6 -1 -7 -10 -3 -13 5 -14 7 -3 14 10 7 9 9
-4 9 -10 0 -18 -7 -18 -16 0 -10 -6 -14 -14 -11 -10 4 -13 1 -9 -8 3 -8 9 -13
13 -10 5 3 11 1 15 -4 3 -6 -3 -8 -13 -6 -10 2 -24 -5 -31 -17 -7 -11 -8 -17
-2 -14 5 4 12 2 16 -4 3 -5 -1 -10 -10 -10 -12 0 -15 -6 -10 -22 4 -13 -5 -5
-18 17 -29 45 -26 52 33 91 19 13 73 50 120 83 86 61 104 69 115 51z m20 -29
c-9 -8 -36 -10 -30 -2 2 4 11 8 20 8 8 0 13 -3 10 -6z m2368 -16 c-3 -9 -8
-14 -10 -11 -3 3 -2 9 2 15 9 16 15 13 8 -4z m44 -17 c-3 -8 -6 -5 -6 6 -1 11
2 17 5 13 3 -3 4 -12 1 -19z m-4916 -15 c7 -10 9 -15 5 -11 -5 4 -15 3 -23 -3
-14 -13 -16 -9 -7 15 8 20 9 20 25 -1z m2029 13 c0 -3 -4 -8 -10 -11 -5 -3
-10 -1 -10 4 0 6 5 11 10 11 6 0 10 -2 10 -4z m365 -45 c-6 -5 -25 10 -25 20
0 5 6 4 14 -3 8 -7 12 -15 11 -17z m1672 -3 c-9 -24 -149 -353 -167 -395 -19
-42 -20 -43 -68 -43 l-50 0 -43 73 c-23 39 -73 123 -111 186 -37 63 -66 116
-64 118 2 2 34 -12 72 -31 38 -19 83 -38 99 -42 17 -4 36 -11 43 -17 8 -6 12
-6 12 1 0 5 8 8 18 6 32 -8 69 10 147 71 43 33 83 65 89 72 15 16 29 16 23 1z
m-3055 -25 c-6 -2 -9 -10 -6 -15 4 -7 2 -8 -5 -4 -13 9 -5 26 12 25 9 0 8 -2
-1 -6z m-91 -26 c-6 -8 -7 -18 -3 -22 4 -5 2 -5 -5 -1 -14 8 -6 36 9 36 7 0 6
-5 -1 -13z m4049 9 c0 -2 -8 -10 -17 -17 -16 -13 -17 -12 -4 4 13 16 21 21 21
13z m-4238 -69 c-12 -13 -19 -27 -15 -32 5 -4 2 -5 -5 -1 -11 6 -11 11 0 24
26 33 33 40 37 36 3 -2 -5 -15 -17 -27z m128 -7 c0 -6 -9 -2 -20 7 -11 10 -20
19 -20 21 0 1 9 -2 20 -8 11 -6 20 -15 20 -20z m-150 16 c0 -2 -8 -10 -17 -17
-16 -13 -17 -12 -4 4 13 16 21 21 21 13z m264 -12 c3 -8 2 -12 -4 -9 -6 3 -10
10 -10 16 0 14 7 11 14 -7z m-212 -1 c-6 -2 -10 -8 -8 -12 3 -4 -1 -8 -9 -8
-11 0 -12 4 -4 14 6 7 17 13 23 12 7 0 6 -2 -2 -6z m1525 -29 c7 14 10 13 20
-3 10 -16 8 -20 -13 -24 -13 -2 -24 0 -24 5 0 5 -4 7 -9 3 -6 -3 -9 4 -8 15 1
19 3 20 13 5 11 -15 13 -15 21 -1z m2933 2 c0 -3 -4 -8 -10 -11 -5 -3 -10 -1
-10 4 0 6 5 11 10 11 6 0 10 -2 10 -4z m-4583 -21 c8 -8 19 -13 24 -10 5 4 9
-1 9 -9 0 -9 5 -16 11 -16 6 0 8 8 4 19 -7 23 10 37 19 15 3 -8 10 -12 16 -9
5 3 10 1 10 -5 0 -7 -7 -9 -16 -6 -12 5 -14 1 -9 -15 5 -13 3 -19 -3 -15 -5 3
-13 -1 -16 -10 -3 -8 -11 -12 -17 -8 -8 5 -8 9 1 14 13 8 8 13 -34 35 -19 10
-34 35 -21 35 3 0 13 -7 22 -15z m4743 -21 c15 -27 6 -54 -21 -62 -11 -3 -11
-1 1 7 18 13 20 32 3 49 -17 17 -26 15 -19 -5 7 -17 6 -17 -11 0 -16 15 -16
19 -3 27 24 15 36 12 50 -16z m-4597 -9 c-7 -21 -13 -19 -13 6 0 11 4 18 10
14 5 -3 7 -12 3 -20z m-167 -10 c-18 -44 -17 -48 6 -21 l26 28 0 -26 c0 -15
-3 -24 -6 -21 -10 10 -41 -27 -35 -43 4 -10 2 -13 -5 -8 -6 3 -29 2 -51 -3
-39 -8 -64 0 -41 14 5 3 10 15 10 27 0 17 3 18 14 9 19 -16 53 4 61 36 3 13
10 23 16 23 6 0 8 -7 5 -15z m138 -1 c3 -8 2 -12 -4 -9 -6 3 -10 10 -10 16 0
14 7 11 14 -7z m72 -36 c4 -7 3 -8 -4 -4 -7 4 -12 2 -12 -5 0 -7 -3 -10 -6 -6
-6 5 3 27 11 27 2 0 7 -5 11 -12z m-105 -26 c-7 -2 -18 1 -23 6 -8 8 -4 9 13
5 13 -4 18 -8 10 -11z m5139 -8 c0 -8 5 -14 11 -14 5 0 7 -5 4 -10 -3 -6 -21
-8 -38 -5 -18 3 -27 2 -20 -3 8 -5 9 -13 3 -22 -6 -8 -10 -11 -10 -7 0 10 -30
-18 -30 -28 0 -4 -14 -27 -31 -51 -36 -53 -64 -56 -64 -8 0 27 3 31 22 29 13
-1 28 4 34 11 6 8 15 11 20 8 5 -3 6 2 3 10 -5 13 -9 12 -25 -7 -19 -22 -19
-22 -2 10 10 17 22 31 28 30 5 -1 9 6 9 15 -1 10 1 16 5 15 3 -1 7 1 9 6 12
36 72 53 72 21z m-5105 7 c3 -5 2 -12 -3 -15 -5 -3 -9 1 -9 9 0 17 3 19 12 6z
m49 -12 c-4 -8 1 -9 17 -4 13 4 22 6 19 4 -3 -2 -14 -12 -26 -22 -20 -16 -21
-16 -18 5 3 28 3 28 10 28 3 0 2 -5 -2 -11z m-204 -40 c0 -5 -4 -9 -10 -9 -5
0 -10 7 -10 16 0 8 5 12 10 9 6 -3 10 -10 10 -16z m57 4 c0 -8 -6 -9 -19 -2
-10 5 -18 11 -18 12 0 2 8 3 18 3 10 0 19 -6 19 -13z m103 7 c0 -5 -8 -10 -17
-10 -15 0 -16 2 -3 10 19 12 20 12 20 0z m-45 -10 c3 -5 1 -10 -4 -10 -6 0
-11 5 -11 10 0 6 2 10 4 10 3 0 8 -4 11 -10z m5156 -28 c-6 -2 -11 -10 -11
-17 0 -13 -29 -29 -38 -20 -3 3 5 14 17 24 13 11 20 24 17 30 -3 5 0 11 6 14
7 2 15 -3 17 -12 2 -8 -2 -17 -8 -19z m-5101 3 c-11 -13 -11 -16 0 -13 7 2 15
-3 17 -10 3 -7 1 -12 -4 -11 -21 4 -33 -2 -33 -18 0 -15 2 -14 15 3 8 11 14
14 15 6 0 -10 3 -10 14 0 8 7 11 17 8 22 -3 5 0 6 7 2 6 -4 9 -12 5 -17 -7
-12 14 -39 31 -39 8 0 16 8 18 18 4 14 5 14 6 1 0 -9 -5 -22 -13 -29 -8 -6
-12 -19 -9 -27 4 -11 2 -14 -5 -9 -7 4 -12 13 -12 20 0 21 -24 36 -47 30 -15
-4 -20 -11 -16 -22 4 -13 1 -12 -11 3 -12 14 -16 15 -13 4 3 -8 -4 -21 -15
-28 -18 -11 -18 -10 -8 11 11 22 10 22 -4 4 -19 -24 -20 -36 -3 -36 8 0 7 -3
-3 -9 -19 -13 -31 -4 -23 17 3 9 3 14 -1 10 -7 -5 -13 -26 -15 -50 -2 -16 -20
-7 -26 13 -5 15 -13 20 -29 17 -16 -3 -22 1 -23 13 -1 11 3 16 12 13 18 -7 64
26 65 46 0 12 4 10 15 -4 8 -11 15 -14 15 -7 0 7 5 9 13 5 9 -6 9 -4 -1 8 -10
13 -10 17 3 22 9 3 14 10 11 15 -11 17 5 40 25 36 10 -2 19 1 19 7 0 6 3 8 6
5 4 -4 1 -14 -6 -22z m40 10 c-7 -9 -15 -13 -19 -10 -3 3 1 10 9 15 21 14 24
12 10 -5z m2217 -21 c44 -7 134 -30 200 -50 459 -140 578 -166 758 -166 170 0
261 19 645 137 63 19 153 39 200 45 92 11 493 14 503 4 3 -3 3 -12 0 -20 -4
-11 -32 -14 -132 -14 -259 0 -423 -25 -651 -98 -333 -107 -367 -114 -545 -115
-188 0 -272 16 -539 105 -364 121 -417 132 -616 131 -91 0 -225 -8 -298 -17
-74 -9 -140 -16 -148 -16 -11 0 -54 67 -54 84 0 19 556 11 677 -10z m-2112 6
c3 -5 -1 -10 -10 -10 -9 0 -13 5 -10 10 3 6 8 10 10 10 2 0 7 -4 10 -10z
m-315 -10 c0 -5 -4 -10 -10 -10 -5 0 -10 5 -10 10 0 6 5 10 10 10 6 0 10 -4
10 -10z m47 -16 c-3 -3 -12 -4 -19 -1 -8 3 -5 6 6 6 11 1 17 -2 13 -5z m6117
-20 c3 -8 2 -12 -4 -9 -6 3 -10 10 -10 16 0 14 7 11 14 -7z m-5914 2 c0 -3 -4
-8 -10 -11 -5 -3 -10 -1 -10 4 0 6 5 11 10 11 6 0 10 -2 10 -4z m-292 -54 c2
-7 -2 -10 -12 -6 -9 3 -16 11 -16 16 0 13 23 5 28 -10z m5362 -34 c0 -5 -6 -3
-13 4 -8 7 -14 19 -14 26 0 11 4 10 14 -4 7 -10 13 -22 13 -26z m875 33 c3 -5
2 -12 -3 -15 -5 -3 -9 1 -9 9 0 17 3 19 12 6z m45 -13 c0 -6 -6 -5 -15 2 -8 7
-15 14 -15 16 0 2 7 1 15 -2 8 -4 15 -11 15 -16z m-825 -7 c0 -8 -4 -16 -10
-18 -16 -5 -38 14 -30 26 9 16 40 9 40 -8z m-5560 -1 c-3 -5 -11 -10 -16 -10
-6 0 -7 5 -4 10 3 6 11 10 16 10 6 0 7 -4 4 -10z m6369 -30 c-6 -6 -10 -3 -10
10 0 13 4 16 10 10 7 -7 7 -13 0 -20z m54 6 c15 5 15 4 2 -5 -23 -16 -30 -13
-29 12 1 16 3 17 6 5 3 -11 11 -15 21 -12z m-7424 -14 c3 -5 -1 -9 -9 -9 -8 0
-12 4 -9 9 3 4 7 8 9 8 2 0 6 -4 9 -8z m1080 -14 c-3 -5 -12 -4 -20 3 -19 16
-18 18 6 12 11 -3 17 -9 14 -15z m176 6 c0 -8 -19 -13 -24 -6 -3 5 1 9 9 9 8
0 15 -2 15 -3z m4175 -4 c-3 -5 1 -10 9 -10 9 0 16 -5 16 -11 0 -5 4 -8 9 -4
14 8 21 -9 10 -25 -6 -11 -9 -12 -9 -2 0 7 -8 12 -18 10 -10 -1 -30 7 -45 19
l-28 22 28 4 c15 2 29 5 31 6 2 0 0 -3 -3 -9z m1948 -5 c-3 -9 -8 -14 -10 -11
-3 3 -2 9 2 15 9 16 15 13 8 -4z m-6403 -20 c0 -14 -24 -27 -34 -18 -3 3 -1
14 5 25 11 20 29 16 29 -7z m94 -38 c-2 -11 -6 -22 -10 -26 -4 -3 -5 1 -1 10
3 9 1 21 -4 26 -6 6 -4 10 5 10 9 0 13 -8 10 -20z m5461 -7 c0 -31 -33 -40
-52 -14 -16 22 1 46 31 42 15 -2 21 -10 21 -28z m950 6 c0 -13 -3 -22 -7 -20
-4 3 -11 -4 -17 -13 -6 -10 -11 -13 -11 -6 0 6 5 15 11 18 6 4 8 13 5 20 -3 8
0 16 7 19 7 2 12 5 12 5 0 1 0 -10 0 -23z m-1841 -7 c-8 -14 -24 -10 -24 6 0
9 6 12 15 9 8 -4 12 -10 9 -15z m-4637 -11 c-3 -8 -6 -5 -6 6 -1 11 2 17 5 13
3 -3 4 -12 1 -19z m-43 -10 c-3 -4 -9 -8 -15 -8 -5 0 -9 4 -9 8 0 5 7 9 15 9
8 0 12 -4 9 -9z m70 -14 c3 -8 2 -12 -4 -9 -6 3 -10 10 -10 16 0 14 7 11 14
-7z m6503 -32 c-10 -10 -14 -23 -10 -28 4 -5 1 -3 -7 4 -13 12 -13 15 4 28 27
19 32 18 13 -4z m63 -44 c11 -13 19 -27 20 -33 0 -5 -7 1 -16 13 -8 12 -19 20
-24 17 -11 -7 18 -38 46 -50 24 -10 54 -13 54 -6 0 3 14 6 30 6 22 0 29 -4 25
-15 -4 -13 -3 -13 7 1 13 16 73 20 95 6 6 -4 18 -4 27 -1 25 10 19 -12 -10
-35 -15 -12 -23 -21 -18 -21 5 0 -3 -8 -16 -17 -14 -10 -28 -17 -32 -15 -5 1
-7 -2 -5 -6 3 -12 -69 -83 -77 -75 -3 3 -6 1 -6 -5 0 -6 -15 -25 -32 -43 l-33
-33 32 -9 c18 -5 40 -6 50 -2 27 11 73 11 73 0 0 -5 5 -3 10 5 9 13 10 13 10
0 0 -13 1 -13 11 0 8 12 9 11 6 -5 -2 -11 -9 -19 -15 -17 -7 1 -12 -3 -12 -9
0 -6 -13 -8 -30 -5 -17 2 -28 0 -24 -5 3 -5 10 -6 16 -3 6 4 9 1 6 -7 -3 -8
-13 -18 -24 -24 -11 -5 -31 -20 -44 -33 -13 -12 -30 -20 -38 -17 -7 3 -10 0
-6 -6 6 -11 -35 -46 -48 -41 -5 1 -8 -7 -8 -18 0 -13 -7 -21 -20 -21 -11 -1
-25 -2 -32 -3 -6 -1 -14 6 -16 14 -5 13 -3 13 11 1 12 -9 17 -10 17 -2 0 7 4
10 9 7 4 -3 6 7 3 22 -3 15 -1 24 3 20 5 -4 14 -3 22 3 10 9 13 8 13 0 0 -7 5
-9 10 -6 6 3 10 11 10 16 0 6 -4 8 -9 4 -6 -3 -15 3 -21 12 -10 16 -11 16 -6
1 6 -20 -10 -34 -17 -16 -3 7 -8 -2 -12 -20 -6 -24 -10 -30 -16 -20 -5 7 -9 9
-9 5 0 -8 -18 5 -50 37 -11 11 -17 22 -14 25 3 3 8 1 12 -4 12 -16 28 -15 30
3 11 101 10 108 -20 103 -5 0 -8 4 -8 9 0 6 -7 10 -15 10 -18 0 -19 19 -1 42
10 13 15 15 24 6 17 -17 15 -33 -3 -18 -8 7 -15 9 -15 4 0 -13 20 -41 20 -29
0 6 5 3 10 -5 8 -13 11 -13 27 3 9 9 12 17 6 17 -6 0 -13 -3 -16 -7 -2 -5 -2
-2 0 6 2 7 -9 24 -24 37 -16 13 -26 24 -23 25 3 0 13 2 23 4 9 2 17 -1 17 -6
0 -5 8 -9 18 -9 14 0 15 -2 2 -10 -12 -7 -12 -12 -3 -21 13 -13 16 -9 26 39 4
19 3 21 -8 12 -8 -7 -19 -9 -25 -5 -16 10 -12 36 8 51 10 8 12 13 5 14 -7 0
-10 7 -6 17 5 12 2 15 -8 11 -9 -4 -14 2 -15 18 -1 14 4 24 11 24 7 0 12 -7
11 -16 0 -9 5 -19 12 -21 6 -3 12 0 12 7 0 6 -4 8 -10 5 -5 -3 -7 0 -4 9 5 12
9 13 19 3 7 -6 11 -16 9 -22 -2 -5 5 -23 17 -40 18 -26 20 -27 14 -6 -4 14 -3
21 2 18 5 -4 10 0 10 8 0 8 -7 17 -14 19 -8 3 -12 10 -9 14 3 5 -6 15 -20 22
-17 10 -21 16 -12 21 7 4 10 11 6 14 -3 4 -17 -1 -30 -9 -24 -16 -38 -13 -38
7 0 5 9 7 19 4 12 -3 22 1 26 12 6 14 9 13 25 -6 10 -13 24 -23 32 -23 8 0 20
-6 28 -12 12 -11 12 -10 1 5 -7 9 -17 17 -22 17 -11 0 -45 33 -52 51 -4 10 -6
9 -6 -3 -1 -10 -6 -18 -11 -18 -7 0 -7 7 0 20 6 11 8 25 5 30 -12 19 37 0 55
-22z m-1090 -18 c-13 -24 -38 -26 -46 -5 -10 24 14 47 37 34 15 -8 17 -14 9
-29z m-2341 -81 c-11 -7 -10 -9 6 -9 17 0 17 -2 5 -10 -8 -5 -24 -10 -35 -10
-16 0 -17 2 -6 9 12 8 12 12 2 25 -12 15 -10 53 5 90 6 16 11 9 22 -33 13 -45
13 -54 1 -62z m1392 92 c-7 -13 -6 -24 4 -37 12 -18 14 -18 20 -2 5 14 10 15
20 5 7 -7 11 -15 8 -19 -2 -5 4 -8 14 -9 11 0 13 -3 5 -6 -7 -3 -20 1 -29 9
-9 7 -14 8 -10 2 4 -7 -1 -18 -10 -25 -15 -12 -16 -12 -10 3 3 9 -1 22 -9 28
-13 11 -18 7 -15 -12 0 -5 -6 -8 -14 -8 -8 0 -15 -5 -15 -11 0 -5 -5 -7 -12
-3 -8 5 -6 11 5 19 10 7 17 17 17 24 0 6 5 11 11 11 8 0 8 4 0 14 -10 11 -8
17 6 25 24 14 25 14 14 -8z m-1308 -71 c-3 -11 0 -20 6 -20 6 0 10 -14 10 -32
-1 -27 -3 -28 -6 -9 -5 25 -27 54 -35 45 -3 -2 -11 4 -19 13 -12 16 -12 17 2
6 21 -17 31 -6 18 19 -9 17 -8 18 9 9 14 -7 18 -17 15 -31z m-2487 18 c4 -7 4
-10 -1 -6 -4 4 -15 2 -24 -5 -14 -11 -14 -10 -2 6 16 20 18 21 27 5z m-106
-39 c0 -5 6 -7 13 -3 9 5 9 4 1 -5 -14 -15 -7 -56 12 -72 8 -6 14 -26 14 -44
0 -46 -29 -51 -80 -14 -22 16 -45 28 -51 27 -6 -2 -14 4 -17 12 -2 8 -1 12 3
8 13 -12 37 22 32 44 -4 14 1 28 15 40 23 20 58 24 58 7z m3834 -5 c3 -8 0
-16 -7 -20 -7 -4 -9 -4 -5 1 4 4 0 13 -8 20 -15 11 -15 12 -1 12 9 0 18 -6 21
-13z m-1167 -29 c-4 -24 -2 -33 5 -29 7 4 8 2 4 -5 -6 -9 -11 -9 -22 0 -11 9
-14 8 -14 -4 0 -10 -9 -14 -29 -13 -16 0 -27 4 -24 9 2 4 8 5 13 2 9 -6 20 18
20 44 0 10 6 18 14 18 8 0 12 -6 8 -15 -3 -10 -1 -13 6 -8 7 4 12 14 12 22 0
8 3 14 6 14 4 0 4 -16 1 -35z m1144 13 c1 -7 1 -16 0 -20 0 -3 11 -5 25 -3 15
1 23 -2 21 -9 -3 -6 2 -17 10 -25 13 -12 14 -11 9 10 -3 13 -3 18 0 11 3 -6 9
-10 14 -7 4 3 6 -5 3 -17 -5 -23 -5 -23 11 -3 17 20 17 20 6 -3 -6 -12 -8 -26
-5 -31 3 -5 -8 -12 -24 -16 -25 -5 -36 0 -70 32 -43 40 -49 55 -28 78 15 18
27 19 28 3z m1005 -12 c3 -8 2 -22 -3 -30 -8 -14 -12 -14 -28 -3 -11 9 -16 20
-12 31 8 20 36 21 43 2z m-2281 -6 c3 -6 -1 -7 -9 -4 -18 7 -22 -11 -6 -21 6
-4 8 -11 5 -16 -4 -5 -1 -9 4 -9 6 0 11 -5 11 -11 0 -5 -5 -7 -11 -3 -7 4 -9
2 -5 -7 3 -8 9 -22 12 -31 4 -10 10 -18 15 -18 5 0 9 -8 10 -17 0 -15 2 -15 9
2 12 28 11 56 -1 30 l-9 -20 3 20 c2 14 9 20 25 19 12 -1 22 2 22 7 0 5 10 13
21 20 17 9 23 8 30 -2 6 -11 9 -10 15 4 6 17 7 17 21 0 8 -10 12 -13 9 -8 -2
6 0 17 5 25 7 12 10 11 15 -7 4 -13 9 -21 13 -19 4 3 6 -11 6 -30 -2 -34 -1
-35 29 -28 17 4 63 18 101 33 l70 26 97 -25 c53 -14 99 -28 103 -32 4 -4 -25
-23 -65 -43 -40 -20 -109 -57 -154 -82 -78 -43 -83 -45 -143 -39 -56 5 -87 -4
-64 -18 10 -7 8 -103 -4 -131 -16 -39 -50 -47 -60 -14 -5 16 1 28 27 49 l33
28 -27 11 c-35 13 -54 47 -37 67 6 8 10 14 8 14 -48 0 -411 54 -454 68 l-60
19 140 7 c212 10 285 18 255 27 -14 4 -19 7 -12 8 6 1 12 6 12 12 0 5 -4 8 -9
5 -5 -3 -12 1 -15 10 -4 10 -2 13 7 8 6 -4 5 1 -4 12 -8 10 -14 29 -13 42 0
12 -3 22 -7 22 -5 0 -9 6 -9 14 0 8 -3 16 -7 19 -5 2 -3 2 4 1 7 -2 15 1 18 6
8 13 22 13 30 0z m3405 0 c0 -5 -2 -10 -4 -10 -3 0 -8 5 -11 10 -3 6 -1 10 4
10 6 0 11 -4 11 -10z m-6587 -35 c23 -2 49 -4 57 -4 8 -1 -5 -10 -29 -21 -23
-11 -48 -17 -55 -13 -6 3 -8 2 -3 -2 6 -7 -103 -85 -118 -85 -7 0 45 102 63
122 7 9 20 14 28 11 8 -3 34 -7 57 -8z m6485 -14 c-15 -25 -28 -27 -28 -5 0 8
5 12 10 9 6 -3 13 1 16 10 4 9 8 14 11 11 2 -2 -2 -13 -9 -25z m-153 -11 c7
12 35 -12 35 -31 0 -7 3 -10 6 -6 4 3 20 -1 37 -9 24 -13 31 -14 38 -2 6 9 9
9 9 1 0 -7 -9 -17 -20 -23 -16 -9 -22 -8 -26 5 -3 8 -13 15 -22 15 -11 0 -9
-5 8 -20 12 -11 26 -17 31 -14 5 3 5 -5 0 -18 -5 -14 -16 -22 -27 -21 -18 1
-18 1 -1 -11 24 -18 22 -21 -21 -23 -29 -1 -33 0 -17 8 l20 9 -20 -3 c-11 -1
-20 -8 -20 -15 0 -7 -6 -17 -14 -21 -25 -16 -3 -31 29 -19 17 5 27 14 24 19
-3 5 1 9 9 9 10 0 13 -7 10 -19 -3 -13 2 -20 21 -25 25 -6 37 -26 16 -26 -5 0
-10 5 -10 11 0 5 -5 7 -12 3 -8 -5 -5 -11 10 -17 17 -8 20 -15 16 -36 -5 -21
-4 -24 7 -13 19 18 29 15 29 -8 0 -11 -4 -20 -10 -20 -5 0 -7 8 -4 18 5 14 4
15 -5 2 -8 -12 -6 -19 10 -32 12 -10 25 -16 29 -13 5 3 11 1 15 -5 4 -7 13 -7
26 1 12 6 23 8 26 6 2 -3 -5 -8 -16 -12 -13 -4 -18 -12 -14 -21 4 -12 0 -15
-16 -12 -12 1 -20 6 -19 10 4 8 -47 48 -62 48 -6 0 -8 5 -5 10 4 6 1 17 -5 25
-6 8 -9 19 -5 25 3 5 3 10 -2 10 -4 0 -16 14 -26 31 -13 24 -20 29 -31 20 -7
-6 -17 -7 -21 -3 -5 4 -5 -1 -2 -10 3 -9 3 -19 -1 -21 -4 -2 -1 -2 6 -1 15 4
62 -16 62 -26 0 -11 -26 -31 -32 -24 -3 2 -8 -7 -10 -21 -5 -21 -2 -25 13 -20
10 4 27 1 36 -5 15 -8 12 -9 -12 -4 -24 4 -27 3 -15 -6 11 -9 12 -13 2 -17 -6
-2 -10 -8 -7 -13 3 -4 -5 -5 -17 -2 -19 5 -20 7 -5 10 9 2 17 8 17 13 0 16
-16 10 -36 -13 -10 -12 -14 -19 -9 -15 6 3 17 2 25 -4 12 -7 10 -9 -7 -9 -13
0 -23 -5 -23 -11 0 -5 4 -8 9 -4 5 3 13 0 17 -6 4 -7 3 -9 -3 -6 -14 9 -34
-16 -30 -34 2 -8 2 -11 0 -6 -8 13 -25 7 -20 -8 4 -8 2 -17 -3 -20 -6 -4 -10
-1 -10 6 0 7 -8 5 -22 -7 -12 -10 -18 -13 -13 -5 4 8 9 33 11 55 1 23 3 41 4
41 1 0 3 8 5 18 2 11 -1 15 -8 10 -8 -4 -7 -1 1 9 10 13 10 17 0 21 -7 2 -21
-8 -32 -22 -10 -14 -16 -18 -13 -9 3 9 3 19 -1 21 -4 2 -1 2 6 1 6 -2 12 1 12
7 0 6 -8 9 -17 7 -11 -2 -18 -12 -18 -25 0 -12 -4 -25 -8 -29 -4 -5 -5 -1 -1
9 3 10 1 17 -6 17 -7 0 -9 8 -5 20 3 11 4 20 0 20 -7 0 -29 -52 -27 -62 3 -13
-15 -9 -28 6 -6 8 -19 12 -28 9 -15 -4 -15 -3 -2 6 8 6 11 11 7 11 -4 0 -4 8
2 17 6 12 6 24 -1 38 -11 19 -10 19 8 5 10 -8 16 -10 12 -6 -4 5 -3 15 3 22 6
8 9 20 6 28 -4 10 -1 13 9 9 10 -4 15 -1 13 8 -3 17 21 69 32 69 5 0 7 -21 5
-47 -4 -58 11 -34 17 28 6 57 16 79 34 79 9 0 13 6 9 15 -3 9 0 15 10 15 9 0
12 -5 8 -12 -6 -10 -5 -10 8 -1 8 7 19 9 23 5 5 -4 5 -1 1 6 -4 7 -12 9 -18 6
-6 -4 -8 1 -6 12 2 11 9 18 14 17 6 -1 10 11 9 27 -1 23 1 27 11 19 8 -7 14
-7 19 1z m-901 -16 c16 -6 22 -39 9 -47 -5 -3 -18 -1 -31 4 -19 7 -21 12 -12
29 12 22 12 22 34 14z m-41 -64 c1 -11 7 -20 14 -20 7 0 16 -8 22 -17 11 -23
11 -73 -1 -73 -5 0 -7 -4 -4 -8 2 -4 1 -14 -5 -22 -7 -12 -9 -11 -9 5 0 19 -2
18 -19 -4 -20 -26 -51 -24 -51 4 0 13 12 19 33 16 4 0 7 8 7 19 0 11 -4 20
-10 20 -5 0 -7 7 -3 15 3 9 2 15 -3 14 -23 -4 -45 2 -39 11 9 14 -8 12 -24 -2
-11 -10 -13 -10 -7 0 4 7 2 12 -6 12 -7 0 -5 5 6 11 15 9 16 13 5 20 -11 7
-10 9 4 9 9 0 17 7 17 15 0 7 8 18 17 24 21 11 53 -17 56 -49z m-5559 34 c3
-8 2 -12 -4 -9 -6 3 -10 10 -10 16 0 14 7 11 14 -7z m1216 11 c0 -2 -6 -8 -13
-14 -10 -8 -14 -7 -14 2 0 8 6 14 14 14 7 0 13 -1 13 -2z m2895 -49 c22 -3 94
-10 160 -17 66 -7 123 -15 127 -18 6 -5 -333 -108 -391 -119 -17 -3 8 22 63
66 16 12 27 24 25 26 -2 2 -38 -2 -79 -9 -120 -22 -119 -22 -60 46 38 45 41
47 77 39 21 -5 56 -11 78 -14z m-3534 -77 c23 -22 35 -40 29 -44 -6 -4 -7 -12
-1 -24 7 -12 6 -18 -2 -18 -7 0 -13 7 -14 16 -4 47 -20 74 -39 67 -8 -3 -11 0
-7 10 3 9 -2 14 -15 14 -12 0 -23 4 -27 9 -15 25 42 2 76 -30z m137 16 c-3 -3
-9 2 -12 12 -6 14 -5 15 5 6 7 -7 10 -15 7 -18z m5945 -8 c2 5 2 3 1 -4 -2 -7
1 -15 6 -18 6 -4 10 -11 10 -17 0 -7 -4 -7 -13 1 -8 6 -18 7 -22 3 -5 -4 -5
-2 -2 5 11 19 -4 43 -27 43 -17 0 -18 2 -6 10 11 7 19 4 32 -10 9 -11 18 -17
21 -13z m-6028 13 c3 -6 -1 -7 -9 -4 -18 7 -21 14 -7 14 6 0 13 -4 16 -10z
m-24 -17 c13 -17 13 -17 -6 -3 -11 8 -22 16 -24 17 -2 2 0 3 6 3 6 0 17 -8 24
-17z m5044 -3 c-4 -11 -2 -20 4 -20 6 0 2 -9 -9 -20 -28 -28 -29 -26 -18 20 6
22 15 40 20 40 5 0 6 -9 3 -20z m-5125 1 c0 -5 -7 -11 -14 -14 -10 -4 -13 -1
-9 9 6 15 23 19 23 5z m207 -13 c-3 -8 -6 -5 -6 6 -1 11 2 17 5 13 3 -3 4 -12
1 -19z m5893 6 c0 -8 -5 -12 -10 -9 -6 4 -8 11 -5 16 9 14 15 11 15 -7z
m-5970 2 c0 -2 -7 -7 -16 -10 -8 -3 -12 -2 -9 4 6 10 25 14 25 6z m5880 -10
c0 -3 -4 -8 -10 -11 -5 -3 -10 -1 -10 4 0 6 5 11 10 11 6 0 10 -2 10 -4z
m-5970 -10 c0 -2 -7 -7 -16 -10 -8 -3 -12 -2 -9 4 6 10 25 14 25 6z m6054 -11
c10 -8 23 -12 27 -9 5 3 9 0 9 -6 0 -8 -7 -9 -17 -5 -10 4 -25 8 -32 9 -16 3
-29 26 -14 26 4 0 17 -7 27 -15z m-5907 -17 c-3 -8 -6 -5 -6 6 -1 11 2 17 5
13 3 -3 4 -12 1 -19z m-151 -36 c-17 -16 -18 -16 -5 5 7 12 15 20 18 17 3 -2
-3 -12 -13 -22z m5994 18 c0 -5 -4 -10 -10 -10 -5 0 -10 5 -10 10 0 6 5 10 10
10 6 0 10 -4 10 -10z m-857 -57 c-4 -11 -3 -14 5 -9 7 4 15 1 18 -8 3 -9 10
-16 16 -16 5 0 6 6 3 13 -4 6 0 4 7 -5 12 -14 34 -17 58 -8 3 1 8 2 13 1 4 0
7 3 7 9 0 5 7 7 15 4 8 -4 15 -1 15 5 0 6 7 8 17 4 12 -5 14 -3 9 8 -4 8 1 3
12 -10 18 -22 20 -23 29 -6 7 12 13 14 17 6 4 -6 2 -11 -3 -11 -6 0 -11 -8
-11 -17 0 -15 2 -16 10 -3 8 12 10 9 10 -12 0 -15 5 -30 10 -33 8 -5 7 -12 -2
-23 -11 -13 -11 -14 1 -8 9 6 12 5 9 -5 -3 -8 1 -18 8 -24 11 -9 19 -56 15
-96 -1 -16 -31 -23 -31 -7 0 5 -4 7 -9 3 -6 -3 -14 3 -20 12 -6 11 -11 13 -11
5 0 -8 -5 -10 -12 -6 -8 5 -9 1 -5 -12 7 -18 6 -18 -8 1 -9 11 -14 28 -11 38
2 9 1 15 -4 12 -8 -5 -3 82 5 96 3 4 2 14 -1 22 -7 20 -34 10 -35 -12 0 -12
-2 -12 -9 4 -7 17 -9 17 -9 3 -1 -10 -1 -21 -2 -25 0 -5 -7 -12 -15 -16 -13
-7 -13 -11 -2 -25 10 -12 10 -14 1 -8 -7 4 -13 3 -13 -3 0 -5 -3 -17 -7 -27
-5 -13 -3 -16 10 -11 11 4 20 -1 27 -16 11 -21 11 -21 -4 -3 -15 19 -16 18
-16 -12 0 -18 -4 -32 -9 -32 -5 0 -17 -7 -25 -16 -9 -9 -16 -11 -16 -4 0 6 -4
9 -9 5 -5 -3 -12 4 -16 15 -4 11 -10 18 -15 15 -5 -3 -7 3 -5 14 3 15 -1 19
-16 16 -10 -2 -19 1 -19 6 0 6 -4 8 -9 5 -8 -5 -23 31 -26 59 0 6 -4 16 -8 23
-6 8 -2 12 10 12 16 0 16 1 1 16 -15 16 -15 18 5 35 13 11 17 18 9 19 -8 0 -1
12 15 30 33 34 34 35 26 13z m-5136 -8 c0 -8 -4 -12 -9 -9 -5 3 -6 10 -3 15 9
13 12 11 12 -6z m-219 -25 c-7 -11 -17 -20 -22 -20 -5 0 -1 9 9 20 10 11 20
20 22 20 2 0 -2 -9 -9 -20z m6242 10 c0 -5 -4 -10 -10 -10 -5 0 -10 5 -10 10
0 6 5 10 10 10 6 0 10 -4 10 -10z m90 -11 c0 -5 -4 -9 -8 -9 -5 0 -9 7 -9 15
0 8 4 12 9 9 4 -3 8 -9 8 -15z m-6112 -19 c17 -27 10 -25 -19 6 -13 14 -17 23
-9 19 9 -3 21 -14 28 -25z m-1340 -21 c-6 -4 -14 -13 -19 -20 -6 -10 -8 -7 -6
8 0 12 5 19 10 16 5 -3 6 5 2 18 -7 23 -7 23 8 4 10 -13 12 -22 5 -26z m7402
3 c0 -13 -23 -32 -39 -32 -11 1 -8 5 7 13 12 7 19 16 16 20 -4 4 -2 7 4 7 7 0
12 -4 12 -8z m-7390 -21 c0 -6 -4 -12 -8 -15 -5 -3 -9 1 -9 9 0 8 4 15 9 15 4
0 8 -4 8 -9z m1146 -13 c3 -4 -1 -5 -10 -4 -8 1 -18 5 -22 8 -3 4 1 5 10 4 8
-1 18 -5 22 -8z m6279 -5 c15 -12 16 -14 3 -10 -11 4 -19 -1 -23 -14 -4 -10
-11 -17 -16 -14 -5 4 -9 1 -9 -5 0 -6 -5 -8 -12 -4 -9 6 -9 9 0 12 10 3 10 7
1 18 -8 10 -8 14 0 14 6 0 11 -4 11 -10 0 -5 5 -10 11 -10 6 0 9 9 6 20 -6 24
1 25 28 3z m-368 -7 c0 -8 -8 -11 -20 -8 -14 4 -16 7 -5 13 19 12 25 11 25 -5z
m293 -16 c0 -5 -9 -6 -20 -3 -11 3 -20 9 -20 13 0 5 9 6 20 3 11 -3 20 -9 20
-13z m80 -10 c0 -5 -5 -10 -11 -10 -5 0 -7 5 -4 10 3 6 8 10 11 10 2 0 4 -4 4
-10z m-110 -4 c0 -3 -4 -8 -10 -11 -5 -3 -10 -1 -10 4 0 6 5 11 10 11 6 0 10
-2 10 -4z m-6283 -38 c-3 -8 -6 -5 -6 6 -1 11 2 17 5 13 3 -3 4 -12 1 -19z
m6373 12 c0 -5 -4 -10 -10 -10 -5 0 -10 -8 -10 -17 -1 -22 -25 -55 -33 -46 -4
3 -7 1 -7 -5 0 -7 -5 -12 -11 -12 -8 0 -8 4 -1 13 7 8 7 18 2 27 -17 27 -10
33 11 9 16 -18 19 -20 15 -6 -3 11 -2 16 4 12 6 -3 10 -1 10 4 0 6 -4 11 -10
11 -5 0 -10 4 -10 10 0 5 7 7 15 4 8 -4 15 -1 15 5 0 6 5 11 10 11 6 0 10 -4
10 -10z m-90 -10 c0 -5 -5 -10 -11 -10 -5 0 -7 -4 -4 -10 3 -5 1 -10 -4 -10
-13 0 -13 3 -5 24 7 18 24 22 24 6z m105 -19 c-8 -14 -25 -14 -25 0 0 5 5 7
10 4 6 -3 10 -1 10 6 0 7 3 10 6 6 3 -3 3 -10 -1 -16z m-6370 -31 c0 -16 -3
-30 -7 -30 -10 0 -10 44 -1 53 3 4 7 7 7 7 1 0 1 -13 1 -30z m3222 14 c8 -22
-18 -37 -36 -20 -7 8 -10 19 -7 25 10 16 36 13 43 -5z m3022 -21 c10 -17 10
-17 11 0 0 9 5 17 11 17 6 0 8 -9 4 -20 -8 -24 18 -38 39 -21 7 6 17 7 21 3 5
-4 5 -2 2 4 -4 7 0 17 8 24 13 11 15 9 11 -11 -3 -13 -5 -24 -6 -24 -1 0 -3
-7 -5 -15 -5 -25 -57 -155 -65 -160 -4 -3 -7 -12 -8 -20 -1 -26 -46 -140 -55
-140 -4 0 -6 4 -2 9 3 5 1 12 -5 16 -7 4 -7 12 0 25 7 13 7 21 -2 26 -7 4 -8
3 -4 -4 4 -7 2 -12 -4 -12 -6 0 -9 -4 -6 -8 2 -4 0 -14 -5 -22 -9 -13 -10 -13
-6 0 2 8 0 23 -5 34 -8 14 -7 17 4 12 7 -4 3 1 -9 10 -13 9 -23 22 -23 28 0 6
5 4 10 -4 6 -9 10 -10 10 -3 0 21 -18 24 -30 6 -9 -15 -10 -12 -7 17 3 19 9
44 13 54 5 13 4 17 -4 12 -7 -4 -10 5 -9 28 1 19 7 34 12 33 6 -1 9 9 8 23 -2
22 -2 23 6 5 5 -11 5 -27 0 -37 -14 -26 -10 -46 4 -20 7 12 15 20 18 18 3 -3
5 3 5 14 0 10 -5 16 -10 13 -5 -4 -7 1 -3 11 4 10 10 29 13 42 7 26 19 31 30
12 4 -6 3 -8 -3 -5 -11 7 -28 -22 -18 -31 3 -3 5 0 5 6 0 7 7 12 16 12 12 0
15 7 12 30 -5 33 6 39 21 13z m-659 -6 c0 -8 -7 -14 -15 -14 -25 0 -17 17 13
26 1 1 2 -5 2 -12z m-3793 -29 c10 -20 30 -72 59 -153 4 -11 7 -23 6 -27 -1
-4 8 -15 21 -25 55 -45 65 -133 16 -148 -23 -8 -45 14 -56 55 -3 14 -17 42
-31 62 -22 33 -29 37 -57 34 -46 -6 -49 2 -15 36 35 34 37 51 12 76 -31 31
-15 112 23 112 6 0 16 -10 22 -22z m1418 -48 c0 -22 -29 -18 -33 3 -3 14 1 18
15 15 10 -2 18 -10 18 -18z m-3190 1 c3 -5 2 -12 -3 -15 -5 -3 -9 1 -9 9 0 17
3 19 12 6z m-7 -38 c-21 -5 -23 -14 -5 -33 10 -12 9 -12 -4 -2 -9 6 -19 8 -24
4 -4 -4 -2 3 4 16 6 12 19 21 29 21 16 -1 16 -2 0 -6z m970 -134 c10 -13 10
-19 -1 -28 -11 -8 -14 -5 -14 19 0 17 1 29 1 28 1 -2 7 -10 14 -19z m313 -9
c5 -32 4 -50 -3 -50 -4 0 -7 -6 -5 -12 1 -7 -8 -14 -20 -16 -13 -2 -24 1 -24
7 -3 26 -2 38 5 68 7 29 9 31 27 20 10 -6 19 -14 20 -17z m-275 -67 c19 -28
25 -32 21 -15 -7 30 11 28 23 -4 14 -36 13 -39 -15 -40 -14 -1 -25 2 -25 8 0
5 -9 6 -20 3 -13 -4 -20 -2 -21 7 0 7 -2 24 -4 38 -2 24 2 40 10 40 2 0 16
-17 31 -37z m-116 -23 c-1 -21 -2 -22 -10 -8 -6 10 -19 15 -30 13 -11 -2 -20
0 -20 6 0 5 6 9 14 9 8 0 17 8 20 17 6 15 8 15 16 3 6 -8 10 -26 10 -40z m-23
-22 c-3 -8 -6 -5 -6 6 -1 11 2 17 5 13 3 -3 4 -12 1 -19z m5277 -84 c-19 -28
-26 -31 -18 -6 4 9 -6 -1 -21 -23 -14 -22 -24 -31 -20 -20 4 11 8 25 9 30 1 6
6 16 10 24 7 10 5 12 -5 6 -8 -5 -4 3 9 17 12 13 21 27 20 29 -2 3 5 -4 14
-14 16 -17 16 -20 2 -43z m-66 -37 c-7 -12 -11 -30 -9 -41 1 -10 -2 -15 -7
-12 -12 7 -23 -19 -17 -36 7 -18 -11 -42 -24 -34 -6 4 -8 12 -5 18 4 6 3 9 -2
5 -13 -7 -38 14 -42 35 -5 28 24 73 48 75 17 2 20 -2 14 -19 -6 -20 -5 -20 19
3 13 13 22 28 19 33 -3 5 0 6 6 2 9 -5 9 -13 0 -29z m-5323 -6 c-6 -10 48 -71
63 -71 7 0 12 -5 12 -12 0 -6 3 -8 7 -5 3 4 11 2 18 -3 8 -7 12 -5 12 5 0 8
-4 12 -9 9 -4 -3 -8 0 -8 5 0 6 7 11 15 11 10 0 14 -7 11 -22 -3 -13 -5 -27
-5 -31 -1 -5 -6 -5 -12 -2 -6 4 -9 0 -7 -8 2 -9 -1 -15 -7 -14 -5 1 -9 7 -9
14 1 7 -1 12 -5 11 -3 -1 -22 6 -41 15 -19 9 -31 16 -25 17 5 0 -1 7 -13 16
-21 14 -31 62 -16 77 9 9 26 -2 19 -12z m3466 -46 c5 4 9 2 9 -4 0 -5 -5 -11
-12 -13 -8 -3 -4 -18 12 -46 13 -23 28 -38 34 -35 6 3 8 3 4 -2 -4 -4 -3 -14
3 -22 6 -7 8 -13 4 -13 -10 0 -56 50 -47 50 4 0 2 4 -4 8 -16 11 -34 70 -26
90 6 16 7 16 10 -1 2 -9 8 -15 13 -12z m139 -57 c0 7 5 10 10 7 6 -3 13 1 16
9 8 22 20 20 20 -3 0 -11 -3 -18 -6 -16 -3 2 -6 -8 -6 -21 -1 -13 2 -21 7 -18
5 3 6 -2 3 -10 -8 -20 -24 -11 -24 14 0 29 -19 34 -30 8 -8 -19 -10 -20 -8 -3
1 11 -4 31 -11 45 l-12 25 20 -25 c11 -14 21 -19 21 -12z m-3545 -18 c3 -5 1
-10 -4 -10 -6 0 -11 5 -11 10 0 6 2 10 4 10 3 0 8 -4 11 -10z m3671 -8 c0 -4
4 -14 7 -22 17 -40 35 -100 30 -100 -3 0 0 -6 6 -14 6 -8 10 -18 9 -23 -4 -11
54 -137 65 -141 4 -2 7 -15 7 -28 0 -17 -6 -24 -20 -24 -11 0 -20 4 -20 8 0 5
-18 28 -40 53 -38 42 -40 47 -36 99 4 45 0 61 -16 80 -11 14 -17 19 -13 12 4
-7 0 -23 -8 -35 -7 -12 -17 -35 -21 -52 -4 -16 -16 -38 -26 -47 -18 -17 -19
-16 -31 12 -7 16 -17 26 -21 24 -4 -3 -8 9 -8 25 0 17 4 31 9 31 5 0 8 14 7
31 -2 28 -1 29 11 13 12 -16 13 -15 13 10 0 18 -4 25 -12 20 -7 -5 -8 -3 -3 6
6 10 10 10 19 -2 10 -14 13 -14 25 -1 11 12 11 17 2 23 -9 5 -6 9 9 13 16 4
21 11 16 22 -3 9 -2 13 3 10 5 -3 13 0 16 6 7 10 19 5 21 -9z m-119 -14 c-3
-8 -6 -5 -6 6 -1 11 2 17 5 13 3 -3 4 -12 1 -19z m1176 -125 c4 -3 7 1 7 10 0
10 5 17 10 17 6 0 10 -4 10 -10 0 -5 6 -10 13 -10 7 0 13 -15 15 -36 1 -25 -1
-33 -10 -28 -8 5 -9 2 -5 -9 5 -13 1 -17 -16 -17 -14 0 -28 -11 -38 -28 -20
-36 -61 -42 -55 -8 2 13 11 37 20 53 8 17 16 50 17 74 3 64 12 80 20 36 3 -20
9 -40 12 -44z m-1219 51 c3 -8 2 -12 -4 -9 -6 3 -10 10 -10 16 0 14 7 11 14
-7z m-4460 -15 c-3 -5 -10 -7 -15 -3 -5 3 -7 10 -3 15 3 5 10 7 15 3 5 -3 7
-10 3 -15z m4490 -5 c3 -9 2 -12 -5 -9 -6 4 -10 1 -8 -6 3 -29 -3 -43 -10 -19
-4 14 -2 30 4 37 13 16 12 16 19 -3z m-4482 -66 c-6 -6 -15 -8 -19 -4 -4 4 -1
11 7 16 19 12 27 3 12 -12z m1958 -39 c0 -23 -28 -26 -37 -3 -6 16 15 37 29
28 4 -3 8 -14 8 -25z m-1930 -39 c0 -5 -4 -10 -10 -10 -5 0 -10 5 -10 10 0 6
5 10 10 10 6 0 10 -4 10 -10z m1960 -55 c20 -24 3 -57 -28 -53 -30 3 -41 30
-22 53 16 19 34 19 50 0z m-2115 -75 c3 -5 8 -20 10 -32 3 -12 10 -26 17 -30
9 -6 6 -7 -9 -3 -23 6 -40 -9 -22 -21 8 -4 9 -3 5 4 -10 17 9 15 23 -2 10 -11
8 -17 -6 -26 -14 -9 -14 -10 -2 -7 9 3 22 0 28 -6 15 -15 14 -40 -1 -31 -7 4
-8 3 -4 -4 4 -6 13 -9 20 -6 8 3 15 -4 18 -20 6 -29 -5 -51 -21 -42 -6 4 -9 1
-5 -7 4 -10 -2 -14 -18 -12 -13 1 -25 4 -28 5 -12 7 -58 5 -53 -3 2 -4 -1 -14
-7 -22 -6 -8 -8 -20 -4 -26 4 -7 3 -9 -3 -6 -6 4 -14 -3 -18 -16 -21 -61 -23
-63 -24 -24 -1 20 4 37 9 37 6 0 10 5 10 11 0 5 -5 7 -11 3 -7 -4 -7 1 1 16 6
12 9 24 6 27 -3 3 4 21 14 41 12 22 16 40 10 47 -5 6 -5 16 0 25 14 22 12 30
-7 23 -11 -4 -14 -3 -9 5 4 7 2 12 -3 12 -6 0 -11 5 -11 11 0 5 4 8 9 4 5 -3
12 -1 16 5 3 5 1 10 -4 10 -6 0 -11 5 -11 11 0 5 5 7 10 4 6 -3 10 -1 10 5 0
6 5 8 10 5 6 -3 13 1 16 9 3 9 10 13 15 10 5 -3 6 2 3 10 -7 17 11 22 21 6z
m2119 -63 c9 -15 7 -21 -8 -32 -22 -17 -46 -4 -46 25 0 35 34 39 54 7z m4461
-41 c1 -14 -2 -26 -6 -26 -4 0 -14 -2 -21 -5 -8 -3 -24 3 -36 14 l-23 19 27
21 c32 25 59 15 59 -23z m-6698 -28 c-3 -8 -6 -5 -6 6 -1 11 2 17 5 13 3 -3 4
-12 1 -19z m6178 -18 c8 0 17 -5 21 -12 5 -7 2 -9 -7 -4 -8 4 -6 1 5 -8 10 -8
15 -19 11 -25 -4 -7 0 -8 11 -4 13 5 16 3 11 -10 -3 -9 -2 -17 4 -17 6 0 7 -5
4 -10 -4 -6 -12 -8 -18 -4 -7 3 -4 -1 6 -9 17 -14 14 -53 -3 -42 -5 3 -11 1
-15 -5 -3 -5 -1 -10 5 -10 7 0 5 -6 -4 -15 -8 -8 -21 -15 -30 -15 -8 0 -18 -5
-22 -11 -3 -6 -15 -8 -26 -6 -11 3 -17 3 -14 0 12 -12 -17 -33 -45 -33 -30 0
-47 15 -27 23 8 3 6 6 -4 6 -27 1 -22 31 5 32 19 1 18 2 -5 8 -25 6 -27 8 -15
30 6 14 18 26 26 29 9 3 11 0 6 -9 -5 -8 -4 -10 0 -6 5 4 10 15 11 23 5 30 14
45 24 39 6 -3 7 1 4 9 -4 9 1 18 10 22 9 3 16 12 16 20 0 16 34 37 38 23 2 -5
10 -9 17 -9z m491 -33 c-3 -23 -17 -37 -36 -37 -23 0 -31 31 -11 46 17 13 50
7 47 -9z m-3636 -18 c-8 -18 -8 -31 0 -49 10 -25 10 -25 5 3 -6 30 10 61 26
51 5 -3 6 2 2 11 -5 16 -4 16 24 1 32 -16 49 -61 31 -83 -5 -7 -7 -17 -3 -23
3 -5 -1 -13 -9 -16 -9 -3 -14 -10 -11 -14 3 -5 -4 -11 -15 -15 -11 -4 -18 -11
-15 -16 4 -5 1 -9 -5 -9 -6 0 -9 15 -6 37 3 35 3 36 -12 18 -14 -19 -14 -19
-8 -1 3 10 2 24 -3 30 -5 6 -16 31 -25 56 -11 34 -12 41 -1 27 13 -18 14 -17
20 3 4 12 9 19 11 17 3 -2 0 -15 -6 -28z m-792 -7 c3 -17 -2 -22 -18 -22 -25
0 -38 29 -19 41 20 13 34 6 37 -19z m4536 -48 c3 -8 2 -12 -4 -9 -6 3 -10 10
-10 16 0 14 7 11 14 -7z m-2036 -11 c5 -18 -28 -29 -38 -12 -5 7 -6 17 -3 22
7 12 35 5 41 -10z m1882 -23 c-6 -11 -17 -20 -25 -20 -8 0 -13 9 -12 20 1 14
8 20 24 20 21 0 22 -3 13 -20z m-4374 -1 c10 -17 -13 -36 -27 -22 -12 12 -4
33 11 33 5 0 12 -5 16 -11z m3534 -35 c0 5 7 3 15 -4 13 -11 13 -15 3 -21 -10
-7 -10 -9 0 -9 6 0 12 -7 12 -15 0 -8 6 -12 13 -9 9 3 12 -4 11 -23 -2 -36 -2
-36 -16 -26 -22 13 -57 11 -51 -4 6 -16 -29 -18 -58 -3 -30 16 -23 53 17 94
28 29 39 35 45 24 5 -7 9 -9 9 -4z m-1076 -40 c19 -19 20 -26 4 -42 -16 -16
-43 -15 -58 3 -10 13 -10 19 5 35 22 24 29 25 49 4z m1886 2 c0 -14 -29 -44
-31 -32 -7 36 -4 46 17 46 8 0 14 -6 14 -14z m-6653 -42 c-6 -6 -47 9 -47 17
0 5 11 3 25 -3 14 -6 24 -13 22 -14z m2323 6 c0 -5 -4 -10 -10 -10 -5 0 -10 5
-10 10 0 6 5 10 10 10 6 0 10 -4 10 -10z m730 -18 c7 2 15 -4 17 -12 4 -13 3
-13 -6 0 -9 12 -11 9 -11 -15 l-1 -30 -14 34 c-16 36 -19 54 -6 33 4 -7 14
-12 21 -10z m-3020 4 c0 -2 -8 -10 -17 -17 -16 -13 -17 -12 -4 4 13 16 21 21
21 13z m5392 -18 c9 -7 19 -20 22 -28 3 -8 4 -5 2 7 -2 12 2 24 10 27 16 6 19
-21 5 -43 -7 -11 -13 -10 -36 5 -27 18 -27 18 -21 -2 5 -17 1 -20 -21 -19 -28
0 -43 11 -43 30 0 6 5 3 11 -5 9 -12 10 -11 6 8 -3 12 -2 20 2 18 4 -3 13 -1
21 5 20 12 23 11 42 -3z m452 -14 c3 -8 2 -12 -4 -9 -6 3 -10 10 -10 16 0 14
7 11 14 -7z m731 -4 c3 -5 1 -10 -4 -10 -6 0 -11 5 -11 10 0 6 2 10 4 10 3 0
8 -4 11 -10z m-4265 -40 c0 -5 -4 -10 -10 -10 -5 0 -10 5 -10 10 0 6 5 10 10
10 6 0 10 -4 10 -10z m2400 -5 c17 -20 5 -45 -20 -45 -23 0 -35 22 -26 45 7
19 30 19 46 0z"/>
<path d="M5280 5479 c0 -5 5 -7 10 -4 6 3 10 8 10 11 0 2 -4 4 -10 4 -5 0 -10
-5 -10 -11z"/>
<path d="M4637 5640 c-3 -11 -2 -20 3 -20 12 0 31 26 23 33 -11 12 -21 7 -26
-13z"/>
<path d="M4661 5623 c0 -4 4 -17 9 -28 8 -19 9 -19 9 2 1 12 -3 25 -9 28 -5 3
-10 3 -9 -2z"/>
<path d="M4785 5560 c-5 -8 8 -25 20 -27 6 -1 21 6 33 16 l23 17 -36 0 c-20 0
-38 -3 -40 -6z"/>
<path d="M4943 5542 c3 -20 65 -92 79 -92 5 0 6 5 2 11 -4 8 0 8 15 0 24 -13
28 -23 6 -15 -8 4 -15 1 -15 -5 0 -6 11 -10 25 -9 14 1 25 5 25 8 0 4 -11 13
-25 20 -14 7 -25 20 -25 29 0 11 -3 10 -16 -5 -14 -18 -15 -18 -8 6 6 22 5 23
-10 11 -14 -12 -16 -12 -10 3 4 11 2 16 -7 14 -8 -2 -13 4 -13 14 1 9 -5 19
-12 22 -9 3 -13 -1 -11 -12z"/>
<path d="M5086 5424 c-3 -8 -10 -12 -16 -9 -14 9 -12 -7 4 -28 12 -16 14 -16
20 -2 3 9 2 13 -4 10 -6 -3 -10 -2 -10 3 0 16 13 22 27 11 17 -15 17 -1 -1 16
-12 12 -15 12 -20 -1z"/>
<path d="M5126 5354 c-4 -9 -4 -19 -1 -22 3 -3 5 0 5 6 0 7 5 12 10 12 7 0 7
-6 0 -20 -8 -15 -7 -26 6 -45 19 -29 20 -30 28 -9 3 8 2 12 -4 9 -5 -3 -14 3
-20 14 -7 13 -7 22 0 26 5 3 10 1 10 -6 0 -7 2 -10 5 -7 7 7 -16 58 -26 58 -4
0 -10 -7 -13 -16z"/>
<path d="M5194 5195 c-9 -22 1 -29 15 -11 8 10 9 16 1 21 -5 3 -13 -1 -16 -10z"/>
<path d="M4448 5595 c-4 -4 -4 -13 -1 -21 6 -17 -9 -18 -25 -2 -7 7 -12 10
-13 8 0 -3 -2 -12 -4 -21 -2 -12 3 -15 22 -11 25 5 38 22 31 42 -2 6 -6 8 -10
5z"/>
<path d="M4425 5510 c3 -5 8 -10 11 -10 2 0 4 5 4 10 0 6 -5 10 -11 10 -5 0
-7 -4 -4 -10z"/>
<path d="M4269 5473 c-13 -16 -12 -17 4 -4 16 13 21 21 13 21 -2 0 -10 -8 -17
-17z"/>
<path d="M4340 5472 c0 -15 11 -21 27 -15 12 5 12 7 1 14 -17 11 -28 11 -28 1z"/>
<path d="M4312 5451 c4 -13 18 -16 19 -4 0 4 -5 9 -11 12 -7 2 -11 -2 -8 -8z"/>
<path d="M4166 5334 c-16 -14 -25 -29 -20 -34 5 -5 21 2 37 16 15 13 23 24 17
24 -6 0 -8 5 -5 10 10 15 2 12 -29 -16z"/>
<path d="M3929 5083 c-13 -16 -12 -17 4 -4 16 13 21 21 13 21 -2 0 -10 -8 -17
-17z"/>
<path d="M3304 5096 c-8 -22 3 -33 18 -18 9 9 9 15 0 24 -9 9 -13 7 -18 -6z"/>
<path d="M3235 5040 c-3 -5 -3 -10 2 -10 4 0 1 -5 -7 -10 -8 -5 -10 -10 -4
-10 17 0 37 27 25 34 -5 4 -12 2 -16 -4z"/>
<path d="M3180 4980 c-9 -6 -10 -10 -3 -10 6 0 15 5 18 10 8 12 4 12 -15 0z"/>
<path d="M2810 4580 c0 -5 5 -10 11 -10 5 0 7 5 4 10 -3 6 -8 10 -11 10 -2 0
-4 -4 -4 -10z"/>
<path d="M5873 4708 c-20 -26 -26 -41 -15 -34 12 7 36 46 29 46 -3 0 -9 -6
-14 -12z"/>
<path d="M3785 4620 c9 -15 45 -32 45 -22 0 5 -12 14 -26 20 -14 7 -23 8 -19
2z"/>
<path d="M5245 4550 c-3 -6 1 -7 9 -4 18 7 21 14 7 14 -6 0 -13 -4 -16 -10z"/>
<path d="M5196 4531 c-4 -5 3 -7 14 -4 23 6 26 13 6 13 -8 0 -17 -4 -20 -9z"/>
<path d="M5585 4530 c-3 -5 -1 -10 4 -10 6 0 11 5 11 10 0 6 -2 10 -4 10 -3 0
-8 -4 -11 -10z"/>
<path d="M5873 2995 c0 -8 4 -12 9 -9 5 3 6 10 3 15 -9 13 -12 11 -12 -6z"/>
<path d="M5839 2983 c-13 -16 -12 -17 4 -4 16 13 21 21 13 21 -2 0 -10 -8 -17
-17z"/>
<path d="M5905 2991 c-3 -6 5 -15 17 -21 21 -10 21 -10 6 3 -10 8 -15 17 -11
20 3 4 4 7 0 7 -3 0 -8 -4 -12 -9z"/>
<path d="M5761 2943 c-1 -17 16 -25 25 -12 4 7 3 9 -4 5 -5 -3 -13 0 -15 6 -4
9 -6 10 -6 1z"/>
<path d="M5970 2943 c0 -6 8 -17 18 -24 16 -13 16 -13 2 6 -8 11 -16 22 -17
24 -2 2 -3 0 -3 -6z"/>
<path d="M5881 2903 c-7 -8 -10 -17 -6 -21 4 -4 10 -1 12 6 6 15 30 16 35 0 3
-7 7 -4 12 7 4 11 4 16 0 13 -4 -4 -14 -3 -23 1 -10 6 -21 4 -30 -6z"/>
<path d="M3213 3115 c-3 -9 -3 -18 -1 -21 3 -3 8 4 11 16 6 23 -1 27 -10 5z"/>
<path d="M2988 2971 c-10 -12 -13 -23 -7 -32 7 -11 9 -10 9 4 0 12 4 16 13 11
6 -4 9 -4 5 1 -4 4 -3 14 3 22 6 7 7 13 2 13 -5 0 -16 -8 -25 -19z"/>
<path d="M1345 2770 c3 -5 -1 -10 -9 -10 -9 0 -16 -4 -16 -9 0 -5 9 -7 20 -4
21 5 28 33 9 33 -5 0 -7 -4 -4 -10z"/>
<path d="M1290 2745 c-11 -13 -10 -14 4 -9 9 3 16 10 16 15 0 13 -6 11 -20 -6z"/>
<path d="M6460 2590 c0 -5 5 -10 10 -10 6 0 10 5 10 10 0 6 -4 10 -10 10 -5 0
-10 -4 -10 -10z"/>
<path d="M7780 2340 c0 -5 5 -10 11 -10 5 0 7 5 4 10 -3 6 -8 10 -11 10 -2 0
-4 -4 -4 -10z"/>
<path d="M7798 2248 c5 -5 16 -8 23 -6 8 3 3 7 -10 11 -17 4 -21 3 -13 -5z"/>
<path d="M7840 2221 c0 -6 4 -12 8 -15 5 -3 9 1 9 9 0 8 -4 15 -9 15 -4 0 -8
-4 -8 -9z"/>
<path d="M7770 2181 c0 -5 5 -13 10 -16 6 -3 10 -2 10 4 0 5 -4 13 -10 16 -5
3 -10 2 -10 -4z"/>
<path d="M7756 2134 c-5 -12 -2 -15 10 -10 8 3 18 6 20 6 2 0 4 5 4 10 0 16
-27 11 -34 -6z"/>
<path d="M7806 2107 c-16 -12 -17 -17 -7 -33 12 -18 12 -18 7 0 -4 11 0 24 11
32 23 17 12 18 -11 1z"/>
<path d="M7828 2068 c2 -10 6 -18 7 -18 1 0 5 8 7 18 3 11 0 19 -7 19 -7 0
-10 -8 -7 -19z"/>
<path d="M7778 2025 c-2 -11 -9 -19 -15 -18 -9 2 -10 -4 -2 -23 10 -28 4 -64
-15 -77 -7 -6 -4 -7 7 -3 19 6 23 -4 7 -20 -7 -7 -6 -11 5 -11 9 0 15 9 15 23
0 12 3 24 8 27 4 2 1 2 -5 1 -7 -2 -13 1 -13 6 0 10 13 14 43 10 9 -1 17 2 16
7 -1 4 0 10 1 13 7 19 7 41 -1 46 -5 3 -10 -2 -10 -10 -3 -32 -4 -36 -11 -36
-5 0 -10 0 -13 0 -3 0 -1 9 5 20 6 12 7 20 1 20 -14 0 -7 30 10 40 10 7 8 9
-8 7 -14 -1 -23 -9 -25 -22z m12 -40 c0 -8 -4 -15 -8 -15 -5 0 -9 7 -9 15 0 8
4 15 9 15 4 0 8 -7 8 -15z"/>
<path d="M4520 2122 c0 -6 9 -16 20 -22 16 -9 22 -8 26 5 4 9 4 19 0 22 -3 4
-6 -2 -6 -12 0 -17 -1 -17 -20 0 -11 10 -20 13 -20 7z"/>
<path d="M4497 2101 c-3 -15 -1 -18 11 -14 11 5 13 3 7 -7 -5 -9 -4 -11 3 -6
9 5 9 13 2 27 -13 24 -16 24 -23 0z"/>
<path d="M4470 2080 c0 -11 4 -20 9 -20 5 0 7 9 4 20 -3 11 -7 20 -9 20 -2 0
-4 -9 -4 -20z"/>
<path d="M7540 2003 c-5 -25 -6 -28 -24 -63 -19 -34 -19 -35 0 -20 19 14 19
14 1 -7 -11 -12 -16 -27 -12 -32 10 -17 23 -13 30 9 4 11 11 18 16 15 5 -4 9
-2 9 4 0 5 -6 11 -12 14 -10 3 -10 9 -2 23 6 11 7 30 3 44 -4 14 -8 19 -9 13z"/>
<path d="M7484 1885 c5 -11 9 -26 10 -33 1 -7 7 -17 12 -22 20 -20 12 24 -9
50 -16 20 -19 21 -13 5z"/>
<path d="M7740 1760 c0 -5 5 -10 11 -10 5 0 7 5 4 10 -3 6 -8 10 -11 10 -2 0
-4 -4 -4 -10z"/>
<path d="M7576 1462 c-3 -4 4 -9 15 -9 23 -2 25 3 4 10 -8 4 -16 3 -19 -1z"/>
<path d="M7616 1434 c-9 -24 -7 -36 4 -29 6 4 8 10 5 15 -3 4 0 10 7 12 8 3 9
6 1 11 -6 4 -14 0 -17 -9z"/>
<path d="M7590 1400 c6 -11 13 -20 16 -20 2 0 0 9 -6 20 -6 11 -13 20 -16 20
-2 0 0 -9 6 -20z"/>
<path d="M7390 1061 c0 -5 5 -13 10 -16 6 -3 10 -2 10 4 0 5 -4 13 -10 16 -5
3 -10 2 -10 -4z"/>
<path d="M1076 387 c3 -10 9 -15 12 -12 3 3 0 11 -7 18 -10 9 -11 8 -5 -6z"/>
<path d="M7145 310 c-3 -5 1 -10 10 -10 9 0 13 5 10 10 -3 6 -8 10 -10 10 -2
0 -7 -4 -10 -10z"/>
<path d="M7110 299 c0 -5 5 -7 10 -4 6 3 10 8 10 11 0 2 -4 4 -10 4 -5 0 -10
-5 -10 -11z"/>
<path d="M7074 286 c1 -8 5 -18 8 -22 4 -3 5 1 4 10 -1 8 -5 18 -8 22 -4 3 -5
-1 -4 -10z"/>
<path d="M7136 281 c-19 -7 -19 -8 0 -13 13 -3 21 0 21 8 0 8 -1 14 -1 13 -1
0 -10 -4 -20 -8z"/>
<path d="M7060 240 c0 -5 5 -10 11 -10 5 0 7 5 4 10 -3 6 -8 10 -11 10 -2 0
-4 -4 -4 -10z"/>
<path d="M2431 5997 c2 -1 13 -9 24 -17 19 -14 19 -14 6 3 -7 9 -18 17 -24 17
-6 0 -8 -1 -6 -3z"/>
<path d="M7807 5993 c-4 -3 -7 -23 -7 -43 0 -20 -5 -41 -12 -48 -8 -8 -9 -12
-1 -12 6 0 13 6 16 13 3 7 16 0 36 -20 17 -18 32 -32 34 -31 1 2 12 -5 25 -14
20 -14 23 -22 18 -62 -2 -25 -12 -53 -21 -62 -15 -16 -19 -15 -45 15 -16 17
-34 31 -40 31 -6 0 -9 3 -7 8 2 4 -6 18 -19 32 -19 20 -24 21 -24 8 0 -9 -4
-20 -10 -23 -6 -3 -7 1 -4 10 5 11 2 14 -10 9 -9 -3 -16 -10 -16 -15 0 -5 -8
-9 -17 -9 -11 0 -14 -3 -8 -8 6 -4 11 -19 11 -34 1 -24 -1 -26 -24 -17 -21 8
-23 7 -14 -4 13 -15 7 -27 -11 -23 -7 2 -9 1 -5 -1 11 -7 -11 -43 -25 -43 -8
0 -7 4 3 10 12 7 10 9 -7 8 -12 -1 -19 -7 -16 -15 3 -7 0 -13 -6 -13 -6 0 -11
-5 -11 -11 0 -5 4 -8 9 -4 5 3 12 1 15 -4 7 -11 -13 -9 -33 3 -11 7 -13 5 -8
-8 5 -14 3 -17 -8 -12 -8 3 -15 1 -15 -4 0 -6 7 -10 15 -10 13 0 13 -2 3 -14
-9 -10 -15 -11 -20 -2 -5 7 -8 6 -8 -4 0 -13 -1 -13 -10 0 -5 8 -12 11 -15 8
-4 -4 2 -12 13 -19 16 -10 18 -17 11 -30 -11 -21 1 -31 21 -18 13 7 13 9 1 9
-8 0 -12 3 -8 6 10 10 28 -7 20 -19 -12 -19 -12 -36 -1 -44 7 -3 8 -1 4 5 -4
7 -2 12 4 12 6 0 8 5 4 12 -4 7 -3 8 4 4 6 -4 8 -14 5 -23 -4 -10 -2 -14 5 -9
6 3 13 -3 17 -14 7 -20 25 -28 25 -10 0 6 -5 10 -11 10 -5 0 -7 5 -3 11 5 8
10 6 16 -6 15 -25 -6 -43 -32 -27 -11 7 -20 8 -20 3 0 -5 9 -13 21 -16 12 -4
18 -12 15 -21 -3 -8 -1 -14 4 -14 5 0 10 6 13 13 2 6 2 2 0 -10 -2 -18 1 -21
14 -17 15 5 16 4 3 -5 -13 -10 -13 -12 0 -21 11 -8 7 -9 -15 -4 -23 4 -26 3
-15 -5 11 -8 11 -11 2 -11 -9 0 -10 -5 -4 -16 7 -12 4 -22 -10 -36 -10 -10
-22 -17 -27 -14 -4 3 -8 -1 -8 -8 0 -8 8 -11 17 -9 13 4 18 -2 18 -20 0 -16
-6 -24 -16 -23 -8 0 -17 -6 -19 -14 -4 -12 -3 -12 5 -1 7 10 11 10 17 1 4 -6
0 -19 -8 -28 -21 -25 -27 -50 -14 -56 9 -5 9 -7 -1 -12 -10 -5 -10 -9 -1 -20
9 -11 8 -14 -2 -14 -8 0 -6 -6 7 -16 10 -8 13 -13 7 -9 -7 3 -13 1 -13 -5 0
-6 -5 -8 -12 -4 -7 4 -8 3 -4 -4 4 -7 0 -22 -8 -34 -9 -12 -16 -18 -16 -12 0
5 5 15 10 20 7 7 7 11 -3 11 -11 0 -16 -12 -19 -54 -1 -7 -5 -10 -10 -7 -4 3
-8 -1 -8 -9 0 -7 -7 -14 -15 -14 -9 0 -14 6 -11 14 3 7 3 13 0 13 -2 0 -9 -12
-15 -27 -10 -27 -11 -27 -25 -9 -13 19 -14 19 -14 -5 0 -19 -2 -21 -10 -9 -7
11 -12 12 -17 4 -5 -6 -23 -15 -40 -19 -18 -3 -33 -11 -33 -16 0 -5 -3 -8 -7
-8 -28 5 -42 -2 -36 -18 4 -11 3 -14 -6 -9 -9 6 -11 0 -8 -22 3 -20 0 -35 -9
-43 -8 -6 -11 -16 -7 -22 3 -6 1 -7 -5 -3 -8 5 -12 -2 -12 -19 0 -14 -4 -24
-10 -20 -6 4 -6 15 1 32 5 14 7 28 4 31 -3 3 -5 0 -5 -6 0 -7 -6 -11 -12 -9
-7 1 -13 -7 -13 -18 -1 -11 -7 -19 -14 -17 -6 1 -19 -4 -27 -13 -10 -9 -24
-13 -40 -9 -15 4 -24 2 -24 -6 0 -6 -5 -8 -11 -4 -6 3 -15 1 -19 -7 -7 -10
-12 -10 -23 0 -12 9 -16 9 -19 -1 -4 -10 -9 -10 -23 2 -17 14 -18 13 -12 -2 4
-12 2 -15 -9 -11 -9 3 -13 12 -10 22 5 13 4 13 -7 -1 -8 -10 -17 -14 -22 -10
-4 4 -4 -4 -1 -18 6 -20 5 -22 -4 -8 -12 19 -23 18 -66 -5 -17 -9 -34 -13 -37
-10 -4 3 -9 -1 -12 -9 -4 -10 -14 -14 -26 -11 -11 3 -19 0 -19 -6 0 -7 -4 -10
-9 -7 -4 3 -16 -3 -26 -14 -10 -11 -26 -20 -36 -20 -25 0 -50 -11 -44 -20 2
-4 -8 -5 -23 -4 -15 2 -22 1 -15 -2 9 -4 5 -13 -12 -30 -14 -14 -25 -29 -25
-35 0 -6 -7 -6 -20 1 -16 9 -20 8 -20 -5 0 -9 5 -13 10 -10 6 4 10 -6 10 -22
0 -15 4 -35 9 -42 7 -11 2 -22 -15 -38 -14 -13 -22 -28 -19 -33 4 -6 1 -9 -7
-8 -7 2 -12 -4 -10 -12 3 -11 -1 -11 -16 3 -18 16 -32 14 -32 -5 0 -5 5 -6 10
-3 6 3 10 4 10 0 0 -3 -10 -10 -22 -16 -21 -8 -20 -9 5 -4 17 4 26 2 23 -4 -3
-5 0 -12 6 -15 7 -3 0 -2 -17 1 -16 4 -35 6 -41 6 -7 0 -10 7 -7 16 4 14 3 14
-9 1 -7 -9 -22 -14 -33 -12 -18 3 -17 1 5 -18 14 -12 19 -18 11 -14 -11 5 -13
3 -8 -9 3 -10 2 -17 -4 -17 -6 0 -8 -4 -5 -8 3 -5 -13 -18 -35 -30 -22 -12
-37 -16 -34 -9 4 7 0 4 -8 -6 -11 -14 -16 -15 -20 -5 -3 8 -6 6 -6 -5 -1 -10
-5 -15 -11 -12 -6 3 -10 -4 -10 -17 0 -19 -2 -20 -11 -8 -9 12 -10 11 -6 -7 3
-13 1 -23 -4 -23 -5 0 -9 8 -10 18 0 14 -2 14 -9 -3 -5 -11 -9 -16 -9 -11 -1
12 -41 -24 -41 -37 0 -5 8 1 18 14 13 15 21 19 26 10 5 -7 2 -10 -6 -9 -7 2
-12 -5 -12 -14 1 -11 -5 -15 -19 -12 -11 2 -27 -2 -36 -9 -8 -6 -12 -7 -8 -1
3 6 0 11 -8 11 -8 0 -11 -5 -8 -10 4 -6 0 -8 -9 -5 -8 4 -21 2 -29 -4 -11 -8
-11 -9 2 -5 9 3 22 1 30 -4 10 -6 7 -9 -13 -9 -18 0 -28 -5 -28 -15 0 -35 -69
-42 -95 -10 -9 11 -14 15 -11 9 3 -6 -1 -11 -8 -11 -8 0 -13 5 -12 11 2 6 1 8
-1 3 -3 -4 -9 -4 -15 -1 -7 4 -7 0 0 -13 9 -15 7 -19 -9 -20 -10 -1 -19 3 -19
8 0 6 -4 7 -10 4 -5 -3 -10 -11 -10 -16 0 -6 4 -8 9 -4 5 3 13 0 17 -6 4 -8 3
-9 -4 -5 -7 4 -12 2 -12 -5 0 -7 -6 -5 -13 6 -17 22 -37 12 -30 -15 3 -11 0
-20 -6 -20 -6 0 -11 5 -11 11 0 6 -7 4 -15 -5 -20 -19 -19 -30 1 -22 14 5 15
4 4 -9 -7 -8 -10 -22 -6 -30 3 -9 0 -15 -8 -15 -7 0 -13 -7 -13 -15 0 -8 4
-15 8 -15 5 0 6 -7 3 -15 -4 -8 -1 -15 6 -15 6 0 10 -6 7 -12 -2 -7 5 -21 16
-31 19 -16 19 -17 1 -18 -14 0 -15 -2 -4 -6 21 -9 36 -26 44 -51 4 -12 12 -20
17 -17 5 4 9 2 9 -3 0 -14 42 -23 56 -11 9 8 11 4 7 -13 -4 -18 -3 -20 6 -8 9
13 11 12 11 -3 0 -10 4 -16 9 -12 6 3 6 -6 1 -25 -7 -24 -6 -30 6 -30 8 0 12
-5 9 -10 -4 -6 -10 -8 -14 -6 -4 3 -8 -1 -8 -8 0 -7 6 -13 14 -13 7 0 13 3 13
7 0 3 9 6 20 6 11 0 20 -4 20 -8 0 -4 12 -3 26 2 14 6 30 7 35 4 6 -3 16 -1
24 6 9 8 15 8 20 0 7 -12 25 -4 25 11 0 6 -5 7 -12 3 -7 -4 -8 -3 -4 4 4 6 13
9 21 6 8 -4 12 -11 8 -18 -4 -7 -1 -7 9 1 8 7 18 10 21 6 4 -3 13 9 21 28 9
19 15 30 16 24 0 -5 4 -4 9 4 7 11 10 9 16 -8 5 -17 10 -20 20 -11 8 6 11 19
8 27 -4 10 -2 14 4 10 6 -4 13 -1 16 5 3 10 9 8 24 -5 19 -17 53 -15 53 4 0 5
5 9 10 9 6 0 10 -7 10 -16 0 -8 4 -13 10 -9 5 3 7 13 4 23 -5 14 -4 15 5 2 14
-20 14 -47 -1 -54 -14 -5 18 -1 65 10 17 4 27 2 27 -5 0 -7 -4 -9 -10 -6 -6 4
-7 -1 -3 -11 4 -11 8 -13 11 -6 8 24 37 12 87 -35 8 -7 20 -13 27 -13 10 0 9
-3 -2 -10 -12 -8 -10 -10 10 -11 17 -1 19 -3 8 -6 -16 -4 -16 -6 -4 -19 17
-17 30 -19 20 -2 -4 7 -3 8 4 4 7 -4 12 -16 12 -27 0 -11 5 -17 10 -14 6 3 10
0 10 -8 0 -20 27 -29 49 -18 21 11 47 -13 57 -54 3 -13 11 -23 16 -22 6 1 13
-4 16 -12 3 -8 0 -11 -7 -7 -7 5 -9 1 -5 -9 7 -17 43 -11 56 9 5 7 8 5 8 -5 0
-9 8 -20 17 -23 10 -4 14 -4 10 0 -8 9 42 36 53 29 5 -3 14 3 20 12 11 17 11
17 6 1 -3 -11 0 -18 9 -18 7 0 17 9 20 20 4 11 11 18 16 14 6 -3 5 -12 -3 -22
-12 -15 -11 -16 5 -3 13 10 17 23 13 40 -3 14 -3 20 0 13 5 -10 10 -10 25 4
17 15 19 15 25 0 3 -9 10 -13 15 -10 5 3 6 11 3 17 -5 9 -3 9 6 0 11 -10 11
-15 0 -28 -11 -13 -10 -14 5 -9 12 5 16 4 11 -4 -3 -6 -2 -13 4 -17 5 -3 10 2
10 13 0 10 7 19 15 19 8 0 12 -4 9 -9 -3 -4 -2 -14 3 -20 13 -21 14 -50 2 -42
-8 4 -8 0 1 -15 14 -28 30 -18 26 17 -2 15 -1 21 1 15 2 -7 9 -13 14 -13 6 0
9 -8 7 -17 -2 -13 3 -17 16 -15 17 3 18 2 7 -12 -12 -14 -11 -16 3 -10 10 4
16 1 16 -9 0 -8 7 -18 16 -21 9 -4 14 -13 10 -21 -3 -9 1 -18 10 -22 8 -3 13
-12 10 -19 -3 -8 -1 -14 4 -14 6 0 10 -6 10 -13 0 -18 60 -78 71 -71 11 6 51
-14 46 -24 -3 -4 9 -18 26 -32 17 -14 28 -19 23 -12 -4 7 7 4 26 -8 18 -11 43
-20 56 -20 20 0 38 -14 82 -67 12 -15 13 -26 1 -19 -5 4 -7 -4 -3 -16 3 -12 7
-17 10 -10 2 7 8 10 13 6 5 -3 9 0 9 6 0 6 8 10 18 9 18 -3 113 36 122 50 3 5
16 12 29 16 18 6 22 4 15 -6 -6 -10 -3 -10 11 1 17 14 18 13 12 -3 -4 -10 -3
-16 2 -13 5 3 12 -6 15 -20 6 -23 9 -24 24 -13 16 13 16 12 1 -6 -17 -22 -23
-65 -8 -65 5 0 9 -5 9 -11 0 -5 -4 -7 -10 -4 -5 3 -10 -1 -10 -9 0 -9 4 -16
10 -16 5 0 7 -7 4 -15 -3 -8 1 -24 10 -37 9 -12 16 -32 17 -43 0 -20 0 -20 9
0 8 19 9 19 9 1 1 -16 3 -17 18 -5 15 13 15 12 6 -6 -8 -16 -6 -24 10 -40 11
-11 17 -14 13 -7 -4 6 -4 17 0 23 10 16 25 -12 18 -33 -4 -12 0 -18 11 -18 10
0 15 -6 12 -13 -7 -19 14 -42 48 -54 23 -7 30 -16 30 -36 1 -16 10 -34 23 -43
12 -8 22 -23 23 -32 0 -14 2 -13 9 3 l9 20 1 -20 c2 -11 2 -24 1 -29 -1 -5 5
-4 13 4 14 11 16 9 16 -8 0 -16 5 -20 21 -17 17 4 19 2 9 -10 -9 -11 -9 -15
-1 -15 15 0 14 -27 -1 -33 -7 -3 -4 -6 7 -6 17 -1 17 -3 5 -11 -8 -5 -10 -10
-3 -10 8 0 8 -9 1 -35 -6 -19 -15 -32 -20 -29 -4 3 -8 -2 -8 -11 0 -9 4 -14 8
-11 4 2 8 -4 8 -14 0 -10 -5 -16 -11 -12 -5 3 -4 -2 4 -12 12 -14 12 -19 1
-29 -10 -10 -11 -9 -5 2 6 10 4 12 -4 7 -9 -6 -9 -11 0 -22 6 -7 16 -11 23 -7
8 5 8 3 -1 -8 -6 -8 -11 -18 -11 -22 0 -5 -3 -11 -6 -14 -3 -3 -3 4 -1 16 2
12 0 19 -5 16 -9 -5 -8 -23 1 -40 3 -5 5 -17 4 -25 -1 -8 -3 -28 -4 -45 -2
-24 -4 -26 -10 -12 -6 17 -8 16 -19 -7 -8 -18 -8 -27 0 -32 6 -4 8 -3 5 3 -3
5 0 10 8 10 11 0 12 -4 4 -14 -6 -7 -9 -21 -7 -31 3 -11 0 -19 -7 -19 -7 0
-11 9 -8 21 3 20 3 21 -6 1 -5 -11 -10 -33 -11 -50 -1 -26 -2 -28 -11 -10 -7
15 -7 11 -3 -14 5 -27 3 -32 -7 -25 -12 6 -12 5 -1 -8 11 -14 10 -18 -6 -27
-11 -6 -23 -7 -27 -3 -5 4 -5 2 -2 -5 4 -6 17 -9 29 -5 16 4 19 2 13 -8 -6 -9
-4 -12 7 -8 8 4 21 2 29 -4 11 -8 11 -9 -3 -4 -10 3 -20 1 -23 -4 -4 -6 -13
-7 -23 -1 -14 7 -18 5 -18 -9 0 -14 3 -16 13 -8 10 8 13 6 13 -8 0 -15 2 -16
9 -5 7 10 9 7 8 -12 -1 -14 -6 -23 -11 -19 -6 3 -6 -3 -2 -14 5 -10 12 -33 16
-51 6 -25 5 -30 -6 -26 -9 3 -12 15 -10 29 3 15 1 22 -5 18 -6 -3 -8 -8 -5
-11 3 -3 1 -14 -5 -24 -7 -15 -7 -19 3 -17 8 2 13 -8 14 -25 1 -15 4 -31 8
-35 5 -4 6 2 4 12 -1 10 2 21 9 23 7 3 9 -3 6 -16 -3 -12 -1 -27 4 -34 5 -6 9
-24 8 -39 0 -15 2 -25 5 -23 4 2 5 -28 4 -68 -2 -58 -6 -73 -21 -78 -13 -6
-14 -8 -3 -8 22 -1 54 -67 55 -111 0 -21 -3 -36 -6 -34 -9 5 -21 -27 -14 -34
3 -3 5 0 5 7 0 23 17 2 23 -29 5 -23 12 -30 29 -30 19 0 20 -2 8 -10 -13 -8
-12 -10 3 -10 11 0 15 -4 11 -12 -5 -8 -2 -9 12 -4 10 4 15 4 11 0 -4 -4 -2
-13 4 -20 6 -8 9 -21 5 -29 -3 -9 -2 -13 3 -10 10 6 26 -32 23 -52 -2 -7 2
-13 8 -13 5 0 10 -7 10 -15 0 -8 6 -15 13 -15 7 0 8 -3 2 -8 -6 -4 -8 -35 -4
-77 3 -38 7 -61 8 -50 2 15 6 11 15 -14 11 -30 13 -32 20 -15 7 18 8 18 21 -6
8 -14 14 -19 15 -11 0 10 3 11 14 2 7 -6 22 -8 31 -4 13 4 16 3 11 -5 -5 -8
-2 -10 8 -6 9 3 16 1 16 -4 0 -6 10 -12 23 -14 14 -2 21 -9 21 -21 -1 -9 2
-17 8 -17 5 0 6 -5 3 -10 -3 -6 1 -13 9 -16 9 -3 13 -10 10 -15 -7 -13 16 -40
27 -33 5 3 9 -4 9 -16 0 -12 5 -18 10 -15 6 3 10 -3 10 -14 0 -10 5 -21 12
-23 16 -6 -31 -48 -54 -48 -10 0 -18 -4 -18 -9 0 -5 -10 -11 -22 -14 -12 -4
-19 -9 -15 -13 4 -4 -3 -15 -15 -25 -11 -11 -17 -19 -12 -19 5 0 10 -9 10 -20
0 -11 -4 -20 -8 -20 -4 0 -5 -7 -2 -15 4 -8 2 -15 -4 -15 -6 0 -9 -8 -8 -17 2
-10 -1 -21 -5 -24 -11 -6 -13 -46 -4 -79 l6 -25 -16 25 c-11 17 -14 19 -10 6
3 -11 0 -24 -7 -29 -9 -6 -8 -7 5 -3 11 3 20 0 23 -9 4 -8 13 -15 21 -15 12 0
13 3 4 14 -9 11 -9 16 0 22 8 5 9 3 4 -6 -6 -10 -4 -12 7 -7 9 3 25 -1 37 -10
l22 -15 -21 -18 c-42 -36 -27 -40 150 -40 l170 0 0 3000 0 3000 -550 0 c-302
0 -550 -3 -550 -6 0 -3 4 -14 10 -24 8 -15 5 -20 -20 -29 -23 -8 -30 -7 -30 3
0 13 -33 56 -42 56 -3 0 -8 -3 -11 -7z m143 -81 c0 -5 -7 -9 -15 -9 -8 0 -12
4 -9 9 3 4 9 8 15 8 5 0 9 -4 9 -8z m-223 -194 c-3 -8 -6 -5 -6 6 -1 11 2 17
5 13 3 -3 4 -12 1 -19z m-62 -418 c3 -6 -1 -7 -9 -4 -18 7 -21 14 -7 14 6 0
13 -4 16 -10z m-1189 -1408 c5 -23 1 -33 -19 -48 -13 -11 -27 -30 -31 -42 -10
-30 -46 -33 -73 -6 -8 8 -23 14 -33 14 -10 0 -21 4 -25 9 -8 13 17 101 27 95
4 -3 8 0 8 5 0 6 8 11 17 11 13 0 14 -3 5 -12 -17 -17 -15 -31 2 -25 11 4 13
1 10 -11 -5 -14 -3 -14 10 2 8 10 13 23 9 29 -3 5 0 8 7 5 8 -2 22 4 32 14 17
17 20 17 33 4 9 -8 18 -28 21 -44z m-586 38 c0 -5 -2 -10 -4 -10 -3 0 -8 5
-11 10 -3 6 -1 10 4 10 6 0 11 -4 11 -10z m541 -283 c-10 -9 -11 -8 -5 6 3 10
9 15 12 12 3 -3 0 -11 -7 -18z m-21 -47 c0 -5 -4 -10 -10 -10 -5 0 -10 5 -10
10 0 6 5 10 10 10 6 0 10 -4 10 -10z m113 -13 c4 3 7 3 7 0 0 -3 -9 -11 -20
-17 -17 -9 -20 -8 -20 11 0 17 3 19 13 10 8 -6 17 -8 20 -4z m-198 -7 c3 -5 1
-10 -4 -10 -6 0 -11 5 -11 10 0 6 2 10 4 10 3 0 8 -4 11 -10z m-95 -45 c0 -5
-5 -3 -10 5 -5 8 -10 20 -10 25 0 6 5 3 10 -5 5 -8 10 -19 10 -25z m21 8 c-12
-20 -14 -14 -5 12 4 9 9 14 11 11 3 -2 0 -13 -6 -23z m748 -232 c13 -3 -24
-29 -39 -28 -14 1 -16 5 -9 18 7 15 16 16 48 10z m321 -35 c0 -2 -8 -10 -17
-17 -16 -13 -17 -12 -4 4 13 16 21 21 21 13z m485 -27 c4 -11 11 -17 16 -14 5
3 6 -2 2 -11 -4 -12 -3 -15 6 -10 6 4 11 4 10 -1 -4 -22 2 -34 13 -27 23 14
46 12 40 -4 -3 -9 -1 -13 4 -9 6 3 8 -8 6 -29 -2 -18 -8 -32 -12 -29 -5 3 -10
-1 -13 -7 -7 -19 -35 20 -42 57 -4 20 -17 37 -36 48 -20 11 -28 21 -23 29 5 9
2 8 -9 -1 -15 -12 -17 -12 -11 4 5 13 4 16 -4 11 -7 -4 -12 -3 -12 3 0 27 56
18 65 -10z m-470 -17 c-3 -3 -11 0 -18 7 -9 10 -8 11 6 5 10 -3 15 -9 12 -12z
m339 -34 c-5 -8 -2 -9 9 -5 10 3 17 2 17 -3 0 -13 -42 -40 -52 -34 -12 8 -10
42 5 47 21 9 28 7 21 -5z m669 -342 c7 -17 -16 -39 -28 -28 -5 4 -5 1 -1 -6 4
-7 3 -18 -2 -25 -5 -7 -13 -23 -17 -36 -7 -25 -15 -36 -47 -72 -17 -18 -19
-18 -38 -2 -11 10 -20 25 -20 34 0 10 -6 19 -12 22 -10 3 -9 11 2 33 12 22 23
29 47 30 33 0 66 20 58 35 -6 8 23 28 41 29 7 0 14 -6 17 -14z m-41 -1314 c-7
-2 -10 -8 -7 -12 3 -5 2 -11 -3 -14 -4 -2 -8 6 -8 19 0 16 4 21 15 17 10 -4
11 -7 3 -10z m516 -960 c2 -7 8 -12 14 -12 13 0 38 -26 38 -39 0 -6 -4 -11
-10 -11 -5 0 -10 -9 -10 -20 0 -11 -7 -20 -16 -20 -9 0 -12 -5 -8 -12 6 -10 5
-10 -7 -1 -8 6 -17 12 -21 12 -8 2 -21 5 -48 14 -11 4 -10 6 4 6 15 1 16 4 6
16 -7 8 -22 15 -34 15 -15 0 -17 -3 -7 -9 8 -5 9 -11 3 -15 -19 -12 -24 15 -7
34 9 10 14 24 9 31 -4 7 -3 10 2 6 5 -3 20 1 33 8 28 15 53 13 59 -3z m97
-140 c6 -37 7 -37 -33 -16 -38 18 -38 21 -10 51 25 26 33 20 43 -35z m-42
-151 c3 -14 1 -18 -9 -14 -8 3 -11 9 -8 14 3 5 -2 6 -11 3 -14 -6 -14 -8 2
-21 17 -14 17 -14 0 -9 -10 3 -25 6 -33 6 -11 0 -12 4 -3 18 16 25 55 27 62 3z
m4 -53 c-3 -8 -6 -5 -6 6 -1 11 2 17 5 13 3 -3 4 -12 1 -19z"/>
<path d="M6960 3298 c0 -4 4 -8 9 -8 6 0 12 4 15 8 3 5 -1 9 -9 9 -8 0 -15 -4
-15 -9z"/>
<path d="M7657 5749 c7 -7 15 -10 18 -7 3 3 -2 9 -12 12 -14 6 -15 5 -6 -5z"/>
<path d="M7555 5440 c-4 -6 -11 -7 -17 -4 -7 4 -8 2 -4 -5 6 -9 11 -9 22 0 14
11 18 19 10 19 -3 0 -8 -5 -11 -10z"/>
<path d="M7515 5329 c-4 -6 -5 -12 -2 -15 2 -3 7 2 10 11 7 17 1 20 -8 4z"/>
<path d="M7398 5303 c7 -3 16 -2 19 1 4 3 -2 6 -13 5 -11 0 -14 -3 -6 -6z"/>
<path d="M7238 5283 c7 -3 16 -2 19 1 4 3 -2 6 -13 5 -11 0 -14 -3 -6 -6z"/>
<path d="M7556 5273 c-6 -14 -5 -15 5 -6 7 7 10 15 7 18 -3 3 -9 -2 -12 -12z"/>
<path d="M6786 5029 c21 -23 23 -23 20 -2 -2 9 -11 17 -20 19 -17 2 -17 2 0
-17z"/>
<path d="M6860 4970 c0 -5 5 -10 11 -10 5 0 7 5 4 10 -3 6 -8 10 -11 10 -2 0
-4 -4 -4 -10z"/>
<path d="M7014 4963 c-13 -9 -21 -10 -31 -2 -10 9 -13 8 -13 -3 0 -7 -8 -14
-17 -15 -10 -1 -52 -11 -93 -23 -41 -12 -80 -22 -87 -24 -7 -1 -16 -6 -20 -11
-4 -4 3 -5 17 -2 14 4 75 19 135 34 61 15 111 30 113 34 2 4 11 5 20 2 9 -2
26 2 36 10 18 13 18 14 -12 13 -17 0 -39 -7 -48 -13z"/>
<path d="M6830 4961 c-8 -6 -17 -8 -21 -5 -4 2 -10 1 -13 -4 -2 -4 8 -8 23 -7
15 0 28 6 28 12 0 7 -1 13 -1 13 -1 0 -8 -4 -16 -9z"/>
<path d="M6635 4950 c-3 -6 1 -7 9 -4 18 7 21 14 7 14 -6 0 -13 -4 -16 -10z"/>
<path d="M6705 4876 c-98 -32 -235 -89 -235 -97 0 -5 21 -1 48 10 26 10 85 33
132 52 91 35 96 37 89 42 -2 2 -17 -1 -34 -7z"/>
<path d="M2022 4808 c2 -8 -6 -13 -19 -12 -13 1 -20 -3 -16 -12 5 -14 33 -27
41 -19 3 3 -1 5 -8 5 -9 0 -8 5 4 19 12 13 14 21 6 26 -6 4 -9 1 -8 -7z"/>
<path d="M7254 4785 c0 -13 3 -22 7 -19 8 4 6 30 -2 38 -3 3 -5 -5 -5 -19z"/>
<path d="M1958 4774 c4 -21 2 -25 -9 -19 -8 5 -10 4 -6 0 4 -5 14 -10 22 -11
15 -2 12 33 -4 49 -5 5 -6 -3 -3 -19z"/>
<path d="M6430 4767 c-64 -27 -326 -159 -335 -169 -20 -20 39 4 200 84 88 44
162 82 164 84 11 10 -6 10 -29 1z"/>
<path d="M7130 4700 c0 -5 5 -10 10 -10 6 0 10 5 10 10 0 6 -4 10 -10 10 -5 0
-10 -4 -10 -10z"/>
<path d="M2055 4630 c-3 -5 -1 -10 4 -10 6 0 11 5 11 10 0 6 -2 10 -4 10 -3 0
-8 -4 -11 -10z"/>
<path d="M6041 4546 c-16 -19 -4 -25 39 -21 19 2 29 1 22 -2 -6 -2 -9 -10 -5
-16 4 -7 0 -7 -9 1 -14 11 -18 10 -27 -7 -15 -28 -15 -29 22 -36 17 -4 37 -11
44 -17 22 -18 71 -26 83 -15 8 9 10 8 5 -4 -4 -11 0 -18 12 -22 10 -2 27 -8
38 -12 14 -6 10 2 -14 28 -19 20 -39 33 -44 30 -6 -3 -7 -1 -3 6 9 13 25 5
103 -55 65 -49 74 -42 11 9 -79 64 -114 87 -133 87 -10 0 -13 5 -9 13 5 7 1 7
-10 -2 -27 -23 -59 -22 -53 1 6 23 -29 46 -46 29 -17 -17 -31 -13 -17 4 7 8
10 15 7 15 -2 0 -10 -6 -16 -14z m54 -66 c3 -6 -1 -7 -9 -4 -18 7 -21 14 -7
14 6 0 13 -4 16 -10z"/>
<path d="M6496 4515 c4 -8 11 -15 16 -15 6 0 5 6 -2 15 -7 8 -14 15 -16 15 -2
0 -1 -7 2 -15z"/>
<path d="M6036 4493 c-6 -14 -5 -15 5 -6 7 7 10 15 7 18 -3 3 -9 -2 -12 -12z"/>
<path d="M6080 4410 c8 -5 20 -10 25 -10 6 0 3 5 -5 10 -8 5 -19 10 -25 10 -5
0 -3 -5 5 -10z"/>
<path d="M6155 4390 c27 -12 43 -12 25 0 -8 5 -22 9 -30 9 -10 0 -8 -3 5 -9z"/>
<path d="M5980 4370 c0 -5 14 -10 32 -10 36 0 35 4 -4 14 -17 4 -28 2 -28 -4z"/>
<path d="M6208 4373 c7 -3 16 -2 19 1 4 3 -2 6 -13 5 -11 0 -14 -3 -6 -6z"/>
<path d="M6078 4353 c7 -3 16 -2 19 1 4 3 -2 6 -13 5 -11 0 -14 -3 -6 -6z"/>
<path d="M6138 4343 c7 -3 16 -2 19 1 4 3 -2 6 -13 5 -11 0 -14 -3 -6 -6z"/>
<path d="M6186 4340 c5 -5 47 -16 94 -24 46 -9 87 -20 90 -24 3 -4 19 -8 35
-10 48 -5 17 13 -45 27 -30 6 -84 18 -119 26 -35 8 -60 10 -55 5z"/>
<path d="M6450 4310 c-9 -6 -10 -10 -3 -10 6 0 15 5 18 10 8 12 4 12 -15 0z"/>
<path d="M2894 4192 c3 -6 -1 -12 -9 -14 -12 -2 -11 -6 6 -16 20 -13 21 -12
15 3 -4 13 -2 16 9 11 22 -8 18 2 -6 15 -13 6 -19 7 -15 1z"/>
<path d="M3010 4191 c0 -6 4 -13 10 -16 6 -3 7 1 4 9 -7 18 -14 21 -14 7z"/>
<path d="M2974 4158 c-4 -5 -3 -12 0 -15 3 -4 6 -1 6 6 0 7 4 10 9 6 5 -3 12
-2 15 3 3 5 -2 9 -10 9 -8 0 -17 -4 -20 -9z"/>
<path d="M6064 3993 c3 -6 0 -13 -6 -16 -7 -2 -11 -7 -8 -10 3 -3 12 -2 20 3
13 8 13 11 1 22 -8 8 -11 8 -7 1z"/>
<path d="M6350 3580 c0 -5 5 -10 10 -10 6 0 10 5 10 10 0 6 -4 10 -10 10 -5 0
-10 -4 -10 -10z"/>
<path d="M6289 3558 c-5 -18 -6 -38 -1 -34 7 8 12 36 6 36 -2 0 -4 -1 -5 -2z"/>
<path d="M6515 3540 c-4 -6 -11 -8 -16 -5 -15 10 -10 -1 7 -15 8 -8 14 -9 13
-4 -4 21 2 28 11 14 6 -9 10 -10 10 -3 0 16 -17 26 -25 13z"/>
<path d="M6612 3504 c10 -10 20 -15 24 -12 3 4 -5 12 -18 18 -22 12 -22 12 -6
-6z"/>
<path d="M7210 3285 c0 -9 -4 -14 -9 -10 -5 3 -13 0 -17 -6 -4 -7 -3 -9 4 -5
5 3 12 2 14 -4 2 -6 9 -1 15 9 8 13 9 22 3 26 -6 3 -10 -1 -10 -10z"/>
<path d="M996 3095 c4 -8 8 -15 10 -15 2 0 4 7 4 15 0 8 -4 15 -10 15 -5 0 -7
-7 -4 -15z"/>
<path d="M1240 2759 c0 -5 5 -7 10 -4 6 3 10 8 10 11 0 2 -4 4 -10 4 -5 0 -10
-5 -10 -11z"/>
<path d="M1310 2700 c0 -5 5 -10 11 -10 5 0 7 5 4 10 -3 6 -8 10 -11 10 -2 0
-4 -4 -4 -10z"/>
<path d="M1290 2667 c0 -14 5 -29 10 -32 7 -4 8 3 4 22 -9 38 -14 42 -14 10z"/>
<path d="M938 2643 c7 -3 16 -2 19 1 4 3 -2 6 -13 5 -11 0 -14 -3 -6 -6z"/>
<path d="M878 2633 c6 -2 18 -2 25 0 6 3 1 5 -13 5 -14 0 -19 -2 -12 -5z"/>
<path d="M1176 2607 c3 -10 9 -15 12 -12 3 3 0 11 -7 18 -10 9 -11 8 -5 -6z"/>
<path d="M1140 2566 c0 -2 8 -10 18 -17 15 -13 16 -12 3 4 -13 16 -21 21 -21
13z"/>
<path d="M1025 2532 c-12 -17 -13 -22 -4 -15 9 7 18 11 20 8 3 -2 5 5 6 15 2
25 2 25 -22 -8z"/>
<path d="M1026 2502 c-3 -5 1 -9 9 -9 8 0 12 4 9 9 -3 4 -7 8 -9 8 -2 0 -6 -4
-9 -8z"/>
<path d="M763 2478 c-15 -18 -35 -58 -29 -58 2 0 13 16 25 35 20 35 22 46 4
23z"/>
<path d="M8150 2471 c0 -5 7 -11 15 -15 8 -3 15 -1 15 3 0 5 -7 11 -15 15 -8
3 -15 1 -15 -3z"/>
<path d="M1128 2463 c6 -2 9 -10 6 -15 -4 -7 -2 -8 5 -4 13 9 5 26 -12 25 -9
0 -8 -2 1 -6z"/>
<path d="M709 2393 c-13 -16 -12 -17 4 -4 9 7 17 15 17 17 0 8 -8 3 -21 -13z"/>
<path d="M686 2355 c-9 -26 -7 -32 5 -12 6 10 9 21 6 23 -2 3 -7 -2 -11 -11z"/>
<path d="M661 2274 c0 -11 3 -14 6 -6 3 7 2 16 -1 19 -3 4 -6 -2 -5 -13z"/>
<path d="M651 2234 c0 -11 3 -14 6 -6 3 7 2 16 -1 19 -3 4 -6 -2 -5 -13z"/>
<path d="M631 2123 c-1 -35 8 -39 44 -22 17 8 16 8 -7 4 -23 -4 -27 -1 -31 22
-4 26 -4 26 -6 -4z"/>
<path d="M1011 2134 c0 -11 3 -14 6 -6 3 7 2 16 -1 19 -3 4 -6 -2 -5 -13z"/>
<path d="M715 2120 c-13 -5 -14 -9 -5 -9 8 0 24 4 35 9 13 5 14 9 5 9 -8 0
-24 -4 -35 -9z"/>
<path d="M1665 2109 c-6 -19 0 -38 9 -28 10 12 16 49 7 49 -5 0 -13 -9 -16
-21z"/>
<path d="M691 2083 c-1 -6 -4 -20 -7 -30 -5 -17 -5 -17 6 0 6 10 9 23 6 30 -3
9 -5 9 -5 0z"/>
<path d="M1029 2065 c-1 -3 -2 -9 -3 -14 0 -5 -4 -13 -8 -17 -5 -4 -8 -12 -8
-18 0 -6 5 -3 11 7 6 10 15 14 22 10 9 -5 8 -2 0 9 -7 8 -10 18 -6 21 3 4 3 7
0 7 -4 0 -8 -2 -8 -5z"/>
<path d="M1638 2063 c6 -2 18 -2 25 0 6 3 1 5 -13 5 -14 0 -19 -2 -12 -5z"/>
<path d="M1531 2034 c0 -11 3 -14 6 -6 3 7 2 16 -1 19 -3 4 -6 -2 -5 -13z"/>
<path d="M671 2014 c0 -11 3 -14 6 -6 3 7 2 16 -1 19 -3 4 -6 -2 -5 -13z"/>
<path d="M1480 2026 c0 -2 7 -9 15 -16 13 -11 14 -10 9 4 -5 14 -24 23 -24 12z"/>
<path d="M661 1974 c0 -11 3 -14 6 -6 3 7 2 16 -1 19 -3 4 -6 -2 -5 -13z"/>
<path d="M651 1934 c0 -11 3 -14 6 -6 3 7 2 16 -1 19 -3 4 -6 -2 -5 -13z"/>
<path d="M1481 1934 c0 -11 3 -14 6 -6 3 7 2 16 -1 19 -3 4 -6 -2 -5 -13z"/>
<path d="M945 1920 c-3 -5 -1 -10 4 -10 6 0 11 5 11 10 0 6 -2 10 -4 10 -3 0
-8 -4 -11 -10z"/>
<path d="M1506 1917 c3 -10 9 -15 12 -12 3 3 0 11 -7 18 -10 9 -11 8 -5 -6z"/>
<path d="M641 1894 c0 -11 3 -14 6 -6 3 7 2 16 -1 19 -3 4 -6 -2 -5 -13z"/>
<path d="M954 1869 c-3 -6 -1 -16 5 -22 8 -8 11 -5 11 11 0 24 -5 28 -16 11z"/>
<path d="M625 1810 c-4 -28 -5 -54 -2 -56 3 -3 8 18 12 46 4 28 5 54 2 56 -3
3 -8 -18 -12 -46z"/>
<path d="M935 1830 c3 -5 8 -10 11 -10 2 0 4 5 4 10 0 6 -5 10 -11 10 -5 0 -7
-4 -4 -10z"/>
<path d="M340 1806 c0 -2 11 -6 25 -8 13 -3 22 -1 19 3 -5 9 -44 13 -44 5z"/>
<path d="M1296 1773 c-6 -14 -5 -15 5 -6 7 7 10 15 7 18 -3 3 -9 -2 -12 -12z"/>
<path d="M955 1770 c-3 -5 -13 -7 -23 -4 -15 5 -15 5 1 -6 13 -8 15 -16 8 -29
-7 -13 -6 -18 3 -18 7 0 12 10 11 21 -1 12 2 27 8 34 5 6 7 12 4 12 -3 0 -8
-4 -12 -10z"/>
<path d="M8208 1743 c7 -3 16 -2 19 1 4 3 -2 6 -13 5 -11 0 -14 -3 -6 -6z"/>
<path d="M611 1678 c1 -68 6 -61 11 15 2 26 0 47 -4 47 -5 0 -7 -28 -7 -62z"/>
<path d="M1246 1618 c3 -5 10 -6 15 -3 13 9 11 12 -6 12 -8 0 -12 -4 -9 -9z"/>
<path d="M8204 1609 c0 -10 4 -19 8 -19 4 0 8 6 8 14 0 8 -4 17 -8 20 -4 2 -8
-4 -8 -15z"/>
<path d="M622 1542 c5 -37 13 -80 17 -97 7 -31 1 -48 -142 -372 -25 -57 -43
-103 -39 -103 4 0 2 -4 -4 -8 -6 -4 -27 -49 -47 -100 -40 -100 -47 -166 -26
-262 11 -50 10 -53 -49 -193 -65 -153 -152 -380 -152 -397 0 -32 19 1 44 78
37 112 159 412 167 412 4 0 14 -26 23 -57 14 -55 15 -55 10 -13 -3 25 -15 89
-25 143 -31 160 -30 164 65 390 25 59 52 122 60 140 8 17 36 82 62 142 71 167
62 161 98 64 18 -46 41 -100 51 -119 29 -57 112 -174 146 -206 19 -17 8 1 -26
46 -103 134 -225 426 -225 541 0 15 -4 30 -8 33 -5 3 -4 -25 0 -62z"/>
<path d="M1232 1590 c0 -14 2 -19 5 -12 2 6 2 18 0 25 -3 6 -5 1 -5 -13z"/>
<path d="M1287 1481 c-4 -17 -3 -21 5 -13 5 5 8 16 6 23 -3 8 -7 3 -11 -10z"/>
<path d="M1220 1474 c-8 -8 -15 -27 -16 -42 -3 -23 -1 -24 7 -9 6 10 8 21 5
24 -3 4 1 15 11 25 9 10 14 18 11 18 -3 0 -11 -7 -18 -16z"/>
<path d="M1266 1438 c3 -4 9 -8 15 -8 5 0 9 4 9 8 0 5 -7 9 -15 9 -8 0 -12 -4
-9 -9z"/>
<path d="M1230 1420 c-6 -11 -8 -20 -6 -20 3 0 10 9 16 20 6 11 8 20 6 20 -3
0 -10 -9 -16 -20z"/>
<path d="M1190 1380 c-9 -6 -10 -10 -3 -10 6 0 15 5 18 10 8 12 4 12 -15 0z"/>
<path d="M128 1213 c7 -3 16 -2 19 1 4 3 -2 6 -13 5 -11 0 -14 -3 -6 -6z"/>
<path d="M1530 1150 c-124 -50 -338 -166 -327 -177 3 -3 33 11 66 31 33 20
120 66 193 101 131 63 157 81 68 45z"/>
<path d="M8286 1038 c3 -5 10 -6 15 -3 13 9 11 12 -6 12 -8 0 -12 -4 -9 -9z"/>
<path d="M2 981 c1 -16 6 -27 10 -25 5 3 6 9 3 14 -3 5 -1 11 5 15 12 7 4 25
-11 25 -5 0 -8 -13 -7 -29z"/>
<path d="M1107 909 c-93 -83 -167 -207 -263 -440 -37 -90 -164 -452 -164 -466
0 -3 5 -3 10 -1 6 2 37 82 69 178 131 392 238 601 368 720 36 33 59 60 51 60
-8 0 -40 -23 -71 -51z"/>
<path d="M8650 536 c0 -2 7 -7 16 -10 8 -3 12 -2 9 4 -6 10 -25 14 -25 6z"/>
<path d="M7880 355 c0 -5 5 -17 10 -25 5 -8 10 -10 10 -5 0 6 -5 17 -10 25 -5
8 -10 11 -10 5z"/>
<path d="M7901 304 c1 -27 107 -298 117 -302 9 -3 10 2 2 20 -5 12 -33 81 -61
153 -49 125 -60 149 -58 129z"/>
</g>
</svg>
